{"glyphs":{":":{"x_min":0,"x_max":148,"ha":148,"o":"m 78 101 q 98 101 112 86 q 127 71 127 51 q 127 22 110 10 q 94 -3 67 -3 q 48 -3 34 12 q 20 28 20 46 q 20 69 38 85 q 55 101 78 101 z m 78 285 q 98 285 112 270 q 127 255 127 235 q 127 206 110 194 q 94 181 67 181 q 48 181 34 196 q 20 212 20 230 q 20 253 38 269 q 55 285 78 285 z"},"$":{"x_min":0,"x_max":492,"ha":492,"o":"m 242 671 l 242 745 l 264 745 l 264 671 q 291 669 319 662 q 347 654 370 640 q 394 625 409 602 q 424 579 424 548 q 424 527 410 508 q 397 489 374 489 q 357 489 346 500 q 335 511 335 528 q 335 545 344 558 q 353 572 353 592 q 353 611 345 623 q 337 635 324 642 q 311 650 295 654 q 279 658 264 660 l 264 393 q 298 373 330 351 q 362 329 387 302 q 412 275 428 241 q 443 207 443 163 q 443 122 429 92 q 415 61 390 40 q 366 18 334 6 q 301 -7 264 -13 l 264 -92 l 242 -92 l 242 -14 q 210 -14 176 -4 q 141 5 112 24 q 84 42 66 70 q 48 98 48 135 q 48 147 52 161 q 55 175 62 186 q 70 197 80 204 q 91 212 106 212 q 122 212 133 202 q 144 192 144 175 q 144 163 138 154 q 133 144 126 134 q 119 125 114 115 q 108 105 108 92 q 108 66 121 48 q 134 29 154 18 q 173 7 196 2 q 220 -3 242 -3 l 242 316 q 212 333 182 351 q 152 369 128 392 q 103 416 88 446 q 73 475 73 514 q 73 551 86 579 q 100 607 124 626 q 147 646 178 657 q 208 668 242 671 z m 242 661 q 192 659 161 629 q 130 599 130 548 q 130 520 140 499 q 149 478 164 462 q 180 445 200 432 q 221 418 242 405 z m 264 -2 q 319 3 347 42 q 375 80 375 133 q 375 190 342 232 q 309 273 264 302 z"},"?":{"x_min":0,"x_max":419,"ha":419,"o":"m 168 187 q 167 192 166 198 q 166 203 166 209 q 166 251 188 283 q 211 315 238 344 q 266 373 288 404 q 311 436 311 478 q 311 505 303 531 q 295 557 280 577 q 264 597 242 610 q 219 622 189 622 q 169 622 150 614 q 131 605 117 590 q 103 576 94 558 q 86 539 86 519 q 86 505 90 490 q 95 476 104 464 q 113 452 125 444 q 137 437 152 437 q 175 437 184 444 q 194 452 202 473 q 191 475 178 480 q 166 484 166 498 q 166 509 176 516 q 186 522 196 522 q 215 522 224 506 q 232 490 232 474 q 232 453 224 439 q 215 425 200 416 q 186 407 168 404 q 151 400 133 400 q 110 400 92 414 q 73 427 60 447 q 47 467 40 490 q 32 513 32 533 q 32 555 40 574 q 48 594 58 613 q 64 618 70 624 q 75 630 79 638 q 79 647 76 656 q 72 664 68 672 q 119 673 170 675 q 220 677 271 677 q 288 677 305 676 q 322 676 339 675 q 335 664 329 654 q 323 645 323 633 q 341 612 355 594 q 369 575 378 556 q 388 537 393 514 q 398 491 398 461 q 398 422 385 398 q 372 374 352 357 q 332 340 308 326 q 285 313 264 294 q 242 276 226 249 q 209 222 204 178 z m 200 101 q 220 101 234 86 q 249 71 249 51 q 249 22 232 10 q 216 -3 189 -3 q 170 -3 156 12 q 142 28 142 46 q 142 69 160 85 q 177 101 200 101 z"},"<":{"x_min":0,"x_max":314,"ha":314,"o":"m 141 267 q 153 251 173 226 q 193 200 214 173 q 234 146 250 120 q 267 94 270 76 l 259 68 q 252 70 234 84 q 217 98 194 118 q 171 137 146 160 q 120 183 98 204 q 76 226 60 244 q 43 261 38 270 q 41 277 58 293 q 75 309 99 330 q 123 351 150 373 q 177 395 201 414 q 225 433 242 445 q 259 457 262 458 q 267 458 270 454 q 272 451 274 447 q 272 434 254 409 q 237 384 215 356 q 193 329 172 304 q 151 279 141 267 z"},"'":{"x_min":0,"x_max":139,"ha":139,"o":"m 75 429 l 64 429 q 56 476 46 524 q 37 571 37 619 q 37 626 38 636 q 40 645 44 654 q 47 663 53 669 q 59 675 68 675 q 78 675 84 669 q 91 663 95 654 q 99 646 100 636 q 102 626 102 619 q 102 571 92 524 q 83 476 75 429 z"},"=":{"x_min":0,"x_max":294,"ha":294,"o":"m 14 371 l 273 371 l 273 324 l 14 324 l 14 371 z m 14 255 l 273 255 l 273 208 l 14 208 l 14 255 z"},"a":{"x_min":0,"x_max":362,"ha":362,"o":"m 307 475 q 322 475 339 472 q 321 447 310 436 q 298 426 292 416 q 286 407 284 391 q 282 375 282 340 q 282 328 282 304 q 282 281 283 252 q 284 222 285 190 q 286 158 288 130 q 289 101 292 80 q 294 59 297 52 q 304 37 317 28 q 330 20 342 10 q 331 7 319 6 q 307 5 295 5 q 280 5 265 6 q 250 7 235 7 q 222 13 224 26 q 225 38 225 49 l 224 54 l 219 57 q 203 31 184 13 q 164 -5 132 -5 q 101 -5 80 14 q 58 34 45 62 q 32 91 26 122 q 20 154 20 179 q 20 221 34 260 q 47 300 62 336 q 77 373 89 406 q 101 439 98 469 q 203 475 307 475 z m 122 404 q 99 367 86 316 q 72 265 72 221 q 72 201 76 174 q 81 146 92 122 q 103 97 120 80 q 137 62 163 62 q 182 62 194 73 q 206 84 212 100 q 218 117 220 136 q 222 154 222 169 q 222 228 221 286 q 220 345 217 404 q 201 404 186 406 q 170 408 154 408 q 135 408 122 404 z"},"L":{"x_min":0,"x_max":510,"ha":510,"o":"m 287 695 q 337 699 386 700 q 436 700 486 700 q 465 666 444 631 q 424 596 408 560 q 391 523 381 484 q 371 446 371 404 q 371 375 382 353 q 390 354 396 356 q 403 358 411 358 q 422 358 428 348 q 435 339 435 330 q 435 317 422 306 q 409 295 397 295 q 376 295 362 308 q 349 320 342 338 q 334 357 331 378 q 328 398 328 414 q 328 468 344 518 q 361 567 380 616 l 375 622 q 340 620 306 621 q 271 622 237 613 q 237 556 238 499 q 239 442 239 384 q 239 351 240 306 q 240 261 232 218 q 225 175 206 140 q 186 104 147 90 q 147 107 150 124 q 152 140 154 157 q 158 215 159 273 q 160 331 160 390 q 160 421 162 442 q 163 464 161 482 q 159 500 150 518 q 142 536 122 560 q 144 575 164 594 q 183 612 203 630 q 223 648 244 665 q 264 682 287 695 z m 490 132 q 476 97 449 64 q 422 31 401 0 l 148 -1 q 116 -1 84 -1 q 52 -1 20 0 l 20 11 q 38 23 48 32 q 58 42 64 52 q 69 62 72 74 q 76 87 83 107 q 93 102 106 95 q 120 88 135 82 q 150 76 164 72 q 178 67 189 67 q 214 67 248 68 q 283 69 318 73 q 354 77 386 84 q 419 92 441 104 q 453 111 464 120 q 476 130 490 132 z"},"3":{"x_min":0,"x_max":418,"ha":418,"o":"m 73 675 q 136 673 199 674 q 262 675 325 675 q 323 665 317 657 q 311 649 311 638 q 311 631 320 620 q 328 609 338 594 q 347 578 356 558 q 364 538 364 514 q 364 490 354 469 q 345 448 329 430 q 313 413 292 401 q 272 389 250 383 l 250 375 q 283 363 310 348 q 338 332 358 310 q 377 289 388 260 q 398 232 398 194 q 398 159 390 136 q 381 114 370 98 q 359 83 348 70 q 338 56 334 39 q 336 27 346 20 q 357 13 365 5 q 336 1 306 0 q 277 0 248 0 l 29 0 l 29 8 q 36 16 46 20 q 55 25 55 39 q 55 49 50 62 q 44 75 38 90 q 31 105 26 122 q 20 139 20 159 q 20 183 30 202 q 40 221 56 235 q 72 249 93 256 q 114 264 137 264 q 167 264 189 246 q 211 229 211 197 q 211 183 202 172 q 192 161 178 161 q 169 161 160 168 q 152 175 152 185 q 152 193 163 202 q 174 210 180 215 q 173 228 160 233 q 147 238 133 238 q 104 238 88 216 q 73 195 73 168 q 73 145 82 125 q 91 105 106 90 q 121 75 141 66 q 161 58 184 58 q 215 58 238 72 q 262 85 278 106 q 294 128 302 156 q 310 183 310 211 q 310 236 300 261 q 291 286 274 306 q 258 327 236 340 q 213 353 186 353 q 170 353 156 348 q 141 343 126 341 l 125 367 q 125 385 128 403 q 139 403 151 402 q 163 401 174 401 q 199 401 220 410 q 241 419 256 434 q 271 450 280 472 q 288 493 288 518 q 288 540 280 560 q 272 579 258 594 q 243 608 224 616 q 204 624 182 624 q 168 624 154 616 q 141 609 130 598 q 120 586 114 572 q 108 558 108 544 q 108 524 118 506 q 127 488 150 488 q 167 488 180 501 q 171 507 168 516 q 164 526 164 537 l 183 538 q 194 538 200 530 q 205 522 205 512 q 205 489 187 476 q 169 464 148 464 q 130 464 114 472 q 97 479 84 491 q 71 503 63 520 q 55 536 55 554 q 55 569 60 582 q 66 596 72 608 q 79 619 84 628 q 90 637 90 642 q 90 652 84 660 q 77 667 73 675 z"},";":{"x_min":0,"x_max":142,"ha":142,"o":"m 78 285 q 98 285 112 270 q 127 255 127 235 q 127 212 110 196 q 92 181 69 181 q 50 181 35 196 q 20 211 20 230 q 20 253 38 269 q 55 285 78 285 z m 76 107 q 96 107 110 92 q 125 77 125 57 q 125 35 118 16 q 110 -3 100 -22 q 91 -40 84 -59 q 76 -78 76 -99 q 76 -112 79 -124 l 101 -123 q 110 -123 117 -126 q 124 -130 124 -141 q 124 -152 116 -161 q 107 -170 96 -170 q 82 -170 72 -164 q 63 -157 58 -146 q 53 -136 51 -124 q 49 -111 49 -99 q 49 -92 52 -76 q 56 -59 60 -42 q 63 -26 66 -13 q 70 0 70 0 q 49 5 34 16 q 18 26 18 52 q 18 75 36 91 q 53 107 76 107 z"},"J":{"x_min":0,"x_max":353,"ha":353,"o":"m 309 708 l 333 707 l 333 699 q 312 685 298 672 q 285 660 277 646 q 269 631 266 612 q 263 594 263 570 l 264 158 q 264 129 273 102 q 282 76 293 50 q 304 24 313 -2 q 322 -29 322 -58 q 322 -76 306 -106 q 291 -135 269 -163 q 247 -191 222 -211 q 198 -231 180 -231 q 140 -231 100 -230 q 60 -228 20 -228 q 20 -217 28 -200 q 36 -183 48 -164 q 61 -145 77 -126 q 93 -106 110 -90 q 126 -75 141 -66 q 156 -56 168 -56 q 180 -56 192 -63 q 205 -70 205 -84 q 205 -98 199 -104 q 193 -110 184 -112 q 175 -114 164 -114 q 154 -113 145 -113 q 137 -122 128 -131 q 120 -140 119 -153 q 126 -158 136 -160 q 145 -161 153 -161 q 175 -161 194 -158 q 212 -156 226 -148 q 239 -139 246 -124 q 253 -108 253 -82 q 253 -55 242 -32 q 230 -9 216 13 q 202 35 190 59 q 179 83 179 112 q 179 227 182 341 q 185 455 185 570 q 185 595 183 613 q 181 631 174 646 q 167 660 154 672 q 141 685 120 699 l 120 707 q 168 702 214 705 q 261 708 309 708 z"},"V":{"x_min":0,"x_max":481,"ha":481,"o":"m 29 710 q 45 715 63 714 q 81 713 97 713 q 112 713 126 712 q 141 712 155 710 l 166 702 q 171 663 168 624 q 166 584 166 544 l 165 186 q 165 161 166 136 q 166 111 167 86 q 178 84 188 84 q 197 84 208 84 l 263 84 q 273 84 283 84 q 293 84 304 86 q 320 122 334 156 q 347 189 357 224 q 367 258 373 294 q 379 329 379 369 q 379 400 372 438 q 366 476 352 512 q 339 548 318 578 q 296 608 265 623 q 249 599 234 573 q 219 547 217 517 q 228 512 242 506 q 256 501 256 486 q 256 471 245 462 q 234 453 220 453 q 195 453 186 474 q 176 494 176 515 q 176 528 188 560 q 201 593 219 626 q 237 660 256 686 q 276 711 290 711 q 296 711 302 707 q 307 703 312 699 q 390 635 426 556 q 461 478 461 378 q 461 327 442 277 q 424 227 402 184 q 380 141 362 108 q 343 76 343 60 q 343 47 354 32 q 364 18 370 7 q 353 5 335 4 q 317 4 300 4 q 230 4 160 4 q 90 4 20 7 q 32 21 48 32 q 63 43 71 60 q 76 72 80 110 q 84 148 86 199 q 88 250 89 309 q 90 368 90 422 q 90 475 90 518 q 90 560 90 579 q 90 610 88 626 q 85 642 78 654 q 71 665 59 677 q 47 689 29 710 z"},"\"":{"x_min":0,"x_max":244,"ha":244,"o":"m 75 429 l 64 429 q 56 476 46 524 q 37 571 37 619 q 37 626 38 636 q 40 645 44 654 q 47 663 53 669 q 59 675 68 675 q 78 675 84 669 q 91 663 95 654 q 99 646 100 636 q 102 626 102 619 q 102 571 92 524 q 83 476 75 429 z m 179 429 l 168 429 q 161 475 151 523 q 141 571 141 619 q 141 626 142 636 q 144 645 148 654 q 152 663 158 669 q 164 675 173 675 q 183 675 190 669 q 196 663 200 654 q 204 646 206 636 q 207 626 207 619 q 207 571 197 523 q 187 475 179 429 z"},"7":{"x_min":0,"x_max":418,"ha":418,"o":"m 20 670 q 107 670 192 672 q 278 673 365 673 q 373 673 382 672 q 390 671 398 667 q 379 646 363 624 q 347 601 336 575 q 328 556 312 514 q 295 471 275 417 q 255 363 234 304 q 214 245 196 194 q 179 142 168 103 q 157 64 157 50 q 157 37 161 25 q 165 13 169 1 q 158 0 146 0 q 134 0 123 0 l 32 1 q 35 27 52 72 q 69 117 94 172 q 119 228 148 288 q 178 349 206 407 q 234 465 258 516 q 281 566 294 600 q 265 603 237 604 q 209 604 181 604 q 161 604 146 602 q 131 601 118 598 q 104 595 90 590 q 77 584 59 575 q 51 599 42 623 q 32 647 20 670 z"},"S":{"x_min":0,"x_max":492,"ha":492,"o":"m 449 713 q 460 713 472 710 q 458 687 428 647 q 397 607 365 564 q 333 520 309 481 q 285 442 285 421 q 285 418 298 410 q 312 402 329 393 q 346 384 362 376 q 377 369 382 366 q 419 343 438 306 q 456 269 456 226 q 456 194 438 167 q 420 140 398 117 q 376 94 358 76 q 340 59 340 47 q 340 37 344 28 q 349 19 351 10 q 327 8 304 6 q 280 4 256 4 q 202 4 150 6 q 97 7 43 7 q 21 7 21 27 q 21 31 34 49 q 47 67 63 92 q 79 118 93 148 q 107 178 110 206 q 104 209 97 210 q 90 212 84 214 q 77 217 73 222 q 69 226 69 235 q 69 252 82 262 q 95 272 111 272 q 123 272 132 266 q 140 259 146 249 q 152 239 155 228 q 158 216 158 206 q 158 192 153 177 q 148 162 141 146 q 134 131 126 116 q 119 101 114 88 q 151 85 188 85 q 211 85 232 86 q 253 88 276 86 q 298 85 316 100 q 333 114 346 135 q 358 156 364 180 q 371 204 371 222 q 371 244 360 264 q 348 284 330 300 q 312 316 290 326 q 269 337 249 340 q 242 320 238 300 q 234 280 234 260 q 234 223 250 192 q 257 194 264 196 q 270 198 278 198 q 289 198 296 191 q 304 184 304 173 q 304 156 291 144 q 278 133 261 133 q 239 133 225 148 q 211 163 202 185 q 194 207 190 230 q 187 253 187 270 q 187 293 194 314 q 201 336 206 357 q 182 368 154 382 q 126 396 102 414 q 77 433 61 457 q 45 481 45 512 q 45 539 52 556 q 59 574 71 588 q 83 602 98 615 q 112 628 127 646 q 138 660 144 677 q 150 694 158 710 q 231 707 304 710 q 376 713 449 713 z m 177 634 q 156 617 138 593 q 121 569 121 540 q 121 523 133 505 q 145 487 163 472 q 181 457 201 448 q 221 438 237 438 q 266 487 297 536 q 328 586 351 637 l 263 638 q 241 638 220 637 q 199 636 177 634 z"},"}":{"x_min":0,"x_max":293,"ha":293,"o":"m 255 297 q 222 292 207 280 q 192 268 186 250 q 181 231 182 208 q 184 184 185 158 q 186 124 186 90 q 187 57 187 23 q 187 -21 178 -49 q 168 -77 148 -93 q 129 -109 99 -114 q 69 -120 29 -120 l 29 -107 q 62 -107 80 -90 q 97 -74 104 -47 q 112 -20 112 14 q 112 49 110 86 q 109 123 109 159 q 109 195 116 225 q 123 255 140 275 q 157 295 189 300 l 189 304 q 145 312 128 343 q 112 374 110 416 q 107 457 112 504 q 116 550 113 590 q 110 629 92 655 q 75 681 29 683 l 29 697 q 45 693 64 694 q 83 694 100 691 q 130 686 148 667 q 166 648 175 621 q 184 594 187 562 q 190 529 189 497 q 188 465 186 436 q 184 408 184 388 q 184 347 200 330 q 216 314 255 307 z"},"Z":{"x_min":0,"x_max":573,"ha":573,"o":"m 553 702 q 546 694 536 690 q 527 687 518 682 q 508 677 492 658 q 477 638 458 611 q 440 584 421 553 q 402 522 387 493 q 372 464 362 441 q 352 418 352 407 l 356 399 q 369 396 382 398 q 395 400 408 400 l 418 399 q 414 372 417 340 q 391 338 365 338 q 339 339 313 335 q 308 327 296 306 q 285 285 270 258 q 256 231 241 200 q 226 170 214 144 q 201 117 193 98 q 185 78 185 72 q 185 61 192 55 q 200 49 210 46 q 221 43 232 42 q 243 42 251 42 q 263 42 292 44 q 321 45 352 50 q 383 54 406 62 q 430 70 430 83 q 430 90 424 104 q 417 117 408 134 q 400 150 394 168 q 387 187 387 206 q 387 226 399 244 q 411 262 433 262 q 445 262 455 254 q 465 247 465 234 q 465 218 454 213 q 442 208 429 206 q 431 170 444 144 q 458 118 476 96 q 493 75 512 53 q 530 31 541 2 q 485 0 430 0 q 376 -1 320 -1 q 170 -1 20 2 l 20 10 q 37 18 52 28 q 68 38 79 55 q 85 64 98 86 q 111 108 126 138 q 142 167 158 199 q 175 231 189 260 q 203 288 212 310 q 221 331 221 338 q 210 338 198 339 q 187 340 176 340 q 174 355 171 370 q 168 386 160 399 q 176 401 192 400 q 207 399 223 399 q 241 399 259 402 q 263 405 273 422 q 283 438 296 462 q 308 485 322 512 q 335 540 346 564 q 358 588 366 606 q 373 624 373 629 q 373 641 364 648 q 354 654 341 658 q 328 661 314 662 q 300 662 292 662 q 257 662 230 655 q 202 648 171 632 q 175 615 182 600 q 189 585 196 570 q 203 554 208 538 q 213 522 213 505 q 213 487 198 476 q 184 465 167 465 q 150 465 146 475 q 142 485 137 497 q 140 500 146 504 q 151 509 157 514 q 163 519 167 524 q 171 529 171 534 q 171 552 156 574 q 142 596 122 618 q 103 641 84 662 q 65 684 57 702 z"},"x":{"x_min":0,"x_max":429,"ha":429,"o":"m 37 466 l 51 467 l 144 467 q 152 467 160 467 q 169 467 177 466 q 171 458 164 449 q 157 440 157 429 q 157 419 163 403 q 169 387 178 370 q 186 353 194 338 q 203 322 208 312 l 219 312 q 223 322 231 337 q 239 352 246 367 q 254 382 260 396 q 265 411 265 421 q 265 433 260 444 q 254 455 247 464 l 253 472 q 291 467 328 468 q 366 470 404 472 l 407 464 q 386 455 360 426 q 333 398 310 362 q 286 327 270 292 q 254 256 254 234 q 254 228 260 214 q 266 199 276 180 q 285 161 297 140 q 309 118 320 99 q 331 80 340 65 q 349 50 354 44 q 365 29 380 20 q 395 12 409 -1 q 368 -4 329 -4 q 315 -4 300 -4 q 286 -3 272 -1 q 276 8 280 17 q 284 26 284 36 q 284 42 276 61 q 268 80 258 102 q 247 124 236 144 q 226 164 222 172 l 211 172 q 205 160 194 142 q 184 123 174 102 q 163 82 156 63 q 148 44 148 32 q 148 20 158 12 q 167 4 174 -4 q 136 -4 100 -4 q 63 -5 25 -7 l 21 2 q 36 16 51 27 q 66 38 77 55 q 83 65 100 94 q 116 124 134 158 q 151 191 164 220 q 178 248 178 255 q 178 259 176 265 q 159 291 146 319 q 132 347 116 374 q 101 400 82 424 q 64 448 37 466 z"},")":{"x_min":0,"x_max":293,"ha":293,"o":"m 13 697 l 28 697 q 67 656 100 609 q 134 562 158 510 q 183 459 197 404 q 211 348 211 290 q 211 231 197 176 q 183 120 158 68 q 134 17 100 -30 q 67 -78 28 -120 l 13 -120 q 41 -69 62 -20 q 83 28 97 77 q 111 126 118 178 q 125 230 125 289 q 125 347 118 400 q 110 452 96 501 q 82 550 61 598 q 40 646 13 697 z"},"&":{"x_min":0,"x_max":514,"ha":514,"o":"m 44 9 q 61 11 61 29 q 61 45 55 62 q 49 79 42 98 q 35 116 29 136 q 23 155 23 175 q 23 209 36 235 q 49 261 70 282 q 90 303 115 322 q 140 340 163 359 q 144 395 134 420 q 125 445 121 468 q 117 491 117 517 q 117 543 117 582 q 117 595 113 607 q 109 619 98 627 l 98 646 l 356 646 l 356 627 q 339 619 332 608 q 326 598 324 586 q 323 573 325 559 q 327 545 327 531 q 327 504 318 482 q 308 459 292 440 q 277 420 258 402 q 239 385 220 370 q 249 318 283 270 q 317 221 354 174 q 366 193 379 214 q 392 236 408 255 q 424 274 444 288 q 463 301 488 306 l 464 212 q 445 209 434 204 q 422 199 413 192 q 404 184 396 173 q 388 162 377 147 q 385 138 400 120 q 416 102 434 84 q 452 66 469 52 q 486 37 498 36 l 504 -2 q 486 5 466 19 q 445 33 424 50 q 404 67 386 84 q 367 101 353 115 q 348 108 340 98 q 333 89 326 78 q 319 68 314 57 q 309 46 309 37 q 309 26 317 19 q 325 12 335 9 l 335 -6 l 44 -6 z m 223 54 q 242 54 258 62 q 273 69 286 81 q 300 93 311 108 q 322 122 331 136 q 241 227 177 335 q 141 305 126 272 q 110 240 110 193 q 110 166 116 141 q 123 116 137 96 q 151 77 172 66 q 193 54 223 54 z m 179 523 q 179 490 185 458 q 191 425 207 395 q 239 424 250 460 q 261 497 261 539 q 261 562 255 576 q 249 591 222 591 q 205 591 196 585 q 188 579 184 570 q 180 560 180 548 q 179 535 179 523 z"},"v":{"x_min":0,"x_max":366,"ha":366,"o":"m 228 494 q 259 494 282 474 q 304 455 318 427 q 332 399 339 367 q 346 335 346 310 q 346 259 330 220 q 314 182 296 148 q 278 115 265 83 q 252 51 258 14 q 238 12 218 10 q 199 8 179 8 q 139 8 100 8 q 60 9 20 11 q 36 26 46 40 q 57 54 64 68 q 70 83 72 100 q 75 116 75 138 q 75 166 77 204 q 79 242 80 282 q 80 322 78 360 q 76 397 69 425 q 66 434 60 442 q 55 449 49 456 q 43 462 37 468 q 31 475 28 484 q 55 484 82 482 q 110 481 137 481 q 139 470 139 459 q 139 448 141 437 q 153 448 161 458 q 169 469 178 477 q 186 485 198 490 q 209 494 228 494 z m 177 80 l 228 81 q 247 118 262 161 q 278 204 278 246 q 278 266 276 296 q 275 326 268 354 q 260 383 244 404 q 228 424 200 424 q 180 424 168 412 q 156 399 149 378 q 142 358 140 334 q 137 309 136 284 q 136 260 137 238 q 138 217 138 204 l 138 112 q 138 87 147 84 q 156 80 177 80 z"},"O":{"x_min":0,"x_max":470,"ha":470,"o":"m 239 704 l 256 699 q 297 667 332 628 q 368 588 394 543 q 420 498 435 448 q 450 397 450 344 q 450 291 441 254 q 432 216 416 188 q 401 159 381 136 q 361 114 339 90 q 317 67 294 40 q 272 13 252 -24 q 199 3 156 40 q 114 77 84 123 q 54 169 38 222 q 21 276 21 336 q 21 373 30 415 q 38 457 58 492 q 77 527 108 550 q 140 574 185 574 q 203 574 218 567 q 233 560 244 548 q 255 537 262 522 q 268 506 268 489 q 268 456 259 438 q 250 421 235 411 q 220 401 200 395 q 179 389 155 380 q 145 376 136 371 q 127 366 116 363 q 119 378 126 392 q 133 406 141 420 q 149 433 156 446 q 164 460 168 475 l 213 461 q 218 469 225 480 q 232 490 232 501 q 232 518 217 528 q 202 539 187 539 q 161 539 144 520 q 126 501 116 474 q 105 448 100 419 q 96 390 96 370 q 96 290 128 221 q 160 152 220 100 q 228 92 238 84 q 249 75 261 75 q 275 75 288 90 q 302 105 313 128 q 324 151 334 180 q 343 208 350 236 q 357 263 360 286 q 364 308 364 320 q 364 361 354 407 q 343 453 322 494 q 301 536 270 568 q 238 601 195 615 q 171 623 146 623 q 120 623 95 623 l 96 632 q 113 635 132 643 q 151 651 170 661 q 189 671 207 682 q 225 694 239 704 z"},"(":{"x_min":0,"x_max":293,"ha":293,"o":"m 280 -120 l 265 -120 q 226 -79 192 -32 q 159 15 134 66 q 110 118 96 174 q 82 229 82 287 q 82 346 96 402 q 110 457 135 508 q 160 560 193 608 q 226 655 265 697 l 280 697 q 253 646 232 598 q 211 550 197 500 q 183 451 176 399 q 168 347 168 289 q 168 229 175 177 q 182 125 196 76 q 210 28 231 -20 q 252 -68 280 -120 z"},"C":{"x_min":0,"x_max":465,"ha":465,"o":"m 445 708 q 429 679 411 652 q 393 624 378 596 q 362 567 352 536 q 341 506 341 472 q 341 452 345 437 q 351 436 359 435 q 367 434 374 432 q 382 429 388 424 q 393 419 393 410 q 393 393 380 384 q 367 374 352 374 q 334 374 323 383 q 312 392 306 406 q 300 419 298 435 q 296 451 296 465 q 296 487 302 508 q 308 528 316 548 q 324 567 332 586 q 339 606 342 627 q 305 629 268 630 q 231 630 194 630 q 180 630 168 612 q 155 593 145 565 q 135 537 127 502 q 119 468 114 436 q 108 403 105 377 q 102 351 102 339 q 102 303 109 258 q 116 212 134 171 q 152 130 182 102 q 212 74 258 74 q 292 74 312 84 q 332 94 344 110 q 355 127 360 148 q 365 169 368 190 q 372 212 376 232 q 381 253 392 269 l 437 274 l 438 243 q 438 199 426 155 q 415 111 391 76 q 367 40 330 18 q 294 -5 244 -5 q 185 -5 143 23 q 101 51 74 95 q 46 139 33 192 q 20 245 20 295 q 20 359 40 417 q 59 475 82 527 q 105 579 124 624 q 143 669 142 708 q 218 703 294 706 q 369 708 445 708 z"},"W":{"x_min":0,"x_max":763,"ha":763,"o":"m 443 713 q 467 713 491 710 q 474 693 461 680 q 448 666 448 640 q 448 505 445 372 q 442 239 442 104 q 442 96 446 86 q 457 84 468 84 q 480 83 491 83 q 497 83 511 83 q 525 83 541 84 q 557 85 570 87 q 583 89 586 94 q 604 121 617 156 q 630 191 638 229 q 647 267 652 304 q 656 342 656 374 q 656 410 650 446 q 644 482 630 515 q 616 548 594 576 q 572 604 539 623 q 524 601 512 578 q 500 554 493 528 q 497 523 504 520 q 511 516 518 512 q 524 508 528 503 q 533 498 533 491 q 533 477 523 468 q 513 459 499 459 q 475 459 465 478 q 455 498 455 518 q 455 548 465 576 q 475 603 491 628 q 507 652 528 674 q 548 697 569 716 q 610 689 642 652 q 675 615 698 572 q 720 528 732 480 q 743 432 743 383 q 743 330 724 282 q 706 234 684 192 q 661 150 642 116 q 624 83 624 59 q 624 55 625 52 q 626 48 627 44 q 635 33 644 24 q 653 15 661 4 q 583 1 505 1 q 454 1 402 1 q 351 1 300 4 l 300 16 q 319 28 332 37 q 345 46 352 57 q 360 68 363 83 q 366 98 366 122 q 366 135 366 147 q 365 159 364 172 q 324 149 286 120 q 247 91 211 62 q 209 61 201 54 q 193 48 193 46 q 193 36 206 24 q 220 11 227 4 q 197 2 168 2 q 138 2 108 2 q 89 2 63 2 q 37 3 20 10 q 31 18 42 26 q 53 34 62 44 q 71 54 76 76 q 82 99 85 129 q 88 159 89 193 q 90 227 90 258 q 89 290 88 317 q 88 344 88 359 l 88 592 q 88 614 86 630 q 83 645 76 657 q 69 669 57 680 q 45 690 26 702 l 26 713 q 59 711 92 710 q 125 710 158 710 l 166 699 q 168 681 166 662 q 164 644 164 626 l 164 130 q 164 108 172 86 q 179 91 194 102 q 210 112 229 125 q 248 138 268 153 q 289 168 307 181 q 325 194 338 204 q 352 215 356 220 q 360 224 362 246 q 365 268 366 299 q 367 330 368 366 q 369 402 369 434 q 369 467 369 492 q 369 517 369 526 q 369 559 372 580 q 374 602 370 614 q 366 627 350 632 q 335 636 299 636 q 285 636 273 628 q 261 620 251 608 q 241 596 234 582 q 228 568 225 556 q 230 547 240 538 q 250 528 250 517 q 250 505 241 496 q 232 487 220 487 q 200 487 192 502 q 183 516 183 533 q 183 545 192 570 q 202 595 214 622 q 227 649 241 672 q 255 695 264 704 q 268 708 293 710 q 318 711 348 712 q 379 713 406 713 q 434 713 443 713 z"},"A":{"x_min":0,"x_max":563,"ha":563,"o":"m 381 704 l 396 703 q 382 691 370 684 q 358 678 349 670 q 340 662 334 650 q 329 638 329 616 q 329 604 338 562 q 348 519 364 461 q 379 403 397 337 q 415 271 432 213 q 450 155 464 112 q 477 70 483 59 q 493 40 510 28 q 526 17 543 6 q 535 4 511 2 q 487 1 459 0 q 431 0 405 0 q 379 0 367 0 q 359 0 350 0 q 341 1 333 3 q 340 13 350 20 q 359 26 366 32 q 374 39 380 48 q 385 57 385 73 q 385 83 382 99 q 380 115 376 132 q 372 149 368 165 q 363 181 359 190 q 355 199 342 204 q 330 209 315 212 q 300 214 285 214 q 270 214 262 214 l 199 213 q 191 213 184 194 q 176 175 170 151 q 165 127 162 104 q 158 82 158 75 q 158 59 162 50 q 167 41 174 34 q 181 27 189 20 q 197 14 204 3 q 159 -2 114 2 q 70 5 25 0 l 20 8 q 31 17 43 24 q 55 31 64 42 q 70 50 80 77 q 91 104 104 144 q 117 183 132 232 q 147 281 161 332 q 175 382 188 432 q 201 481 211 522 q 221 564 227 594 q 233 624 233 636 q 233 649 230 656 q 228 664 224 670 q 219 676 213 682 q 207 688 200 697 q 245 697 290 700 q 336 704 381 704 z m 206 269 l 271 268 q 287 268 302 269 q 318 270 334 272 q 331 291 324 324 q 317 358 308 394 q 299 429 290 460 q 280 492 271 507 q 267 501 261 484 q 255 467 248 444 q 241 420 234 394 q 227 367 221 342 q 215 318 211 298 q 207 278 206 269 z"},"f":{"x_min":0,"x_max":271,"ha":271,"o":"m 228 701 l 251 700 q 244 686 238 670 q 233 655 231 639 q 202 636 185 631 q 168 626 160 616 q 151 605 148 587 q 146 569 146 540 l 147 471 q 167 469 186 470 q 205 470 225 468 q 214 431 202 394 q 191 358 191 319 q 200 315 211 308 q 222 302 222 291 q 222 281 212 276 q 203 270 195 270 q 184 270 178 276 q 172 281 169 289 q 166 297 165 306 q 164 316 164 324 q 164 344 167 364 q 170 383 171 403 l 151 403 q 148 352 148 301 q 148 243 148 186 q 149 128 151 70 q 151 57 156 48 q 160 39 167 31 q 174 23 182 16 q 189 9 197 0 l 32 0 l 32 11 q 63 32 72 54 q 81 75 81 111 l 81 344 q 81 374 78 403 l 20 403 q 22 418 24 434 q 26 450 21 465 q 35 467 50 468 q 65 469 79 471 l 78 549 q 78 591 86 620 q 93 649 111 667 q 129 685 158 693 q 186 701 228 701 z"},"Q":{"x_min":0,"x_max":534,"ha":534,"o":"m 230 721 q 256 710 277 692 q 298 674 318 654 q 352 619 377 585 q 402 551 418 514 q 434 478 442 437 q 449 396 449 346 q 449 308 444 280 q 438 252 428 227 q 418 202 404 176 q 390 151 374 119 q 383 107 396 99 q 409 91 425 91 q 435 91 442 96 q 450 100 455 108 q 460 115 464 123 q 468 131 472 139 q 463 145 454 150 q 444 155 435 161 q 438 172 442 184 q 447 195 456 203 l 474 204 q 485 204 493 198 q 501 192 506 183 q 510 174 512 164 q 514 153 514 144 q 514 128 501 104 q 488 81 470 58 q 452 34 432 15 q 413 -4 399 -12 q 394 -4 385 8 q 376 21 366 33 q 356 45 345 54 q 334 64 325 66 q 301 49 282 28 q 262 6 245 -18 q 197 -1 156 40 q 115 80 85 132 q 55 183 38 239 q 21 295 21 344 q 21 383 30 426 q 40 468 60 504 q 81 539 114 562 q 146 585 193 585 q 210 585 225 577 q 240 569 250 556 q 261 543 267 527 q 273 511 273 495 q 273 457 258 438 q 243 418 220 407 q 196 396 168 388 q 141 380 117 366 q 117 375 124 391 q 130 407 138 425 q 147 443 156 459 q 165 475 170 483 q 178 479 187 476 q 196 472 206 472 q 211 472 216 476 q 220 481 224 488 q 227 494 229 501 q 231 508 231 512 q 231 528 217 538 q 203 547 189 547 q 160 547 142 525 q 124 503 114 473 q 105 443 102 410 q 98 378 98 357 q 98 329 106 298 q 115 266 129 235 q 143 204 162 176 q 180 149 200 130 q 204 126 212 117 q 221 108 230 99 q 240 90 249 83 q 258 76 263 76 q 266 76 269 80 q 272 84 276 89 q 279 94 282 99 q 284 104 285 106 q 285 113 276 118 q 266 123 254 126 q 241 129 229 130 q 217 132 211 133 l 288 209 l 299 209 q 307 199 314 189 q 321 179 329 170 q 338 187 345 208 q 352 228 356 250 q 361 271 363 292 q 365 314 365 333 q 365 393 348 448 q 332 502 300 544 q 267 585 218 610 q 170 634 105 634 l 105 643 q 133 651 148 658 q 164 664 175 672 q 186 680 198 692 q 209 703 230 721 z"},"w":{"x_min":0,"x_max":554,"ha":554,"o":"m 417 492 q 445 492 466 474 q 488 456 503 430 q 518 403 526 374 q 533 344 533 321 q 533 277 518 236 q 503 196 485 162 q 467 127 452 100 q 437 73 437 57 q 437 45 442 34 q 447 22 451 11 l 300 10 q 281 10 262 10 q 243 10 224 11 q 236 34 244 46 q 253 59 258 70 q 263 82 265 97 q 267 112 267 141 l 267 386 q 267 395 266 404 q 266 412 262 420 q 223 392 200 372 q 176 353 162 336 q 149 320 144 303 q 139 286 138 262 q 138 238 140 204 q 142 170 142 120 q 142 91 144 78 q 146 64 151 56 q 156 48 165 40 q 174 31 188 11 q 158 9 128 8 q 97 8 67 8 q 55 8 44 8 q 32 9 20 11 q 34 25 51 38 q 68 51 71 73 q 79 133 78 196 q 78 258 78 318 q 78 330 78 350 q 77 370 75 392 q 73 413 68 432 q 62 451 53 459 q 47 464 40 468 q 32 471 25 476 l 25 487 q 51 487 77 484 q 103 482 129 484 l 143 473 q 144 449 144 426 q 144 402 146 378 q 153 381 170 392 q 186 403 202 416 q 219 430 232 442 q 246 455 249 462 q 241 468 232 474 q 223 479 215 484 q 230 486 244 486 q 259 487 274 487 q 287 487 298 488 q 310 488 318 486 q 326 483 330 475 q 333 467 330 450 l 332 442 l 335 442 q 346 454 353 464 q 360 473 368 480 q 377 486 388 489 q 399 492 417 492 z m 334 81 q 341 80 348 80 q 355 79 362 79 q 372 79 382 80 q 392 81 402 84 q 417 88 428 114 q 439 141 447 174 q 455 206 459 237 q 463 268 463 282 q 463 297 460 322 q 457 347 450 370 q 442 393 428 410 q 415 427 394 427 q 370 427 357 408 q 344 390 338 364 q 331 339 330 312 q 329 286 329 270 q 329 222 331 176 q 333 129 334 81 z"},"-":{"x_min":0,"x_max":294,"ha":294,"o":"m 14 282 l 273 282 l 273 208 l 14 208 l 14 282 z"},"E":{"x_min":0,"x_max":535,"ha":535,"o":"m 32 699 q 55 699 78 698 q 102 696 125 696 q 194 696 264 700 q 333 704 402 704 q 427 704 452 703 q 477 702 502 699 q 495 691 478 672 q 460 654 442 634 q 424 613 410 594 q 397 576 397 567 q 397 556 406 548 q 415 539 421 531 q 415 520 406 510 q 396 499 382 499 q 375 499 369 504 q 363 509 358 516 q 354 522 351 530 q 348 538 348 544 q 348 554 352 564 q 357 575 364 586 q 370 598 376 608 q 382 619 385 629 q 362 642 336 649 q 310 656 284 656 q 242 656 219 647 q 196 638 186 620 q 175 602 174 575 q 172 548 172 512 q 172 486 172 461 q 173 436 175 411 q 218 411 260 412 q 303 414 346 414 q 341 387 330 362 q 318 337 313 310 q 319 305 330 298 q 341 292 341 283 q 341 270 332 262 q 324 253 311 253 q 288 253 282 266 q 276 280 276 299 q 276 311 278 322 q 281 334 283 346 q 254 349 225 349 q 211 349 198 348 q 185 347 171 344 q 169 288 168 233 q 167 178 167 122 q 167 99 174 84 q 182 69 195 60 q 208 51 226 48 q 243 44 264 44 q 297 44 338 52 q 378 61 407 78 q 399 105 388 132 q 376 158 376 187 q 376 213 390 230 q 403 247 430 247 q 442 247 452 236 q 462 226 462 214 q 462 206 457 202 q 452 197 445 194 q 438 190 430 188 q 423 186 418 184 q 421 154 429 130 q 437 107 450 87 q 463 67 479 48 q 495 29 515 8 q 489 3 462 4 q 435 6 408 6 q 322 6 237 2 q 152 -2 65 -2 q 54 -2 42 -1 q 31 0 20 5 q 46 28 60 41 q 74 54 80 68 q 86 81 87 100 q 88 119 88 154 q 88 259 91 363 q 94 467 94 572 q 94 597 92 614 q 91 631 85 644 q 79 656 66 667 q 54 678 32 691 z"},"s":{"x_min":0,"x_max":336,"ha":336,"o":"m 129 459 l 236 460 q 250 460 262 460 q 275 460 289 459 q 281 444 271 430 q 261 417 252 402 q 243 388 236 372 q 230 357 230 339 q 241 339 252 336 q 263 333 269 322 q 264 316 257 310 q 250 305 242 305 q 228 305 218 316 q 208 326 208 340 q 208 355 213 369 q 218 383 220 398 q 204 400 188 401 q 173 402 157 402 q 130 402 113 388 q 96 373 96 345 q 96 321 112 306 q 128 292 152 281 q 177 270 206 261 q 234 252 258 240 q 283 227 299 208 q 315 189 315 159 q 315 133 302 117 q 290 101 273 86 q 256 71 239 52 q 222 33 214 0 l 84 -1 q 68 -1 52 -1 q 36 -1 20 0 q 44 30 68 60 q 91 91 106 126 q 100 133 92 139 q 85 145 78 151 q 83 157 90 163 q 96 169 105 169 q 116 169 124 160 q 132 152 132 141 q 132 130 128 120 q 124 111 119 102 q 114 93 108 84 q 103 75 100 65 q 115 62 130 61 q 146 60 161 60 q 179 60 196 62 q 212 65 224 72 q 236 80 243 94 q 250 107 250 129 q 250 154 234 169 q 219 184 196 194 q 172 204 145 212 q 118 221 94 232 q 71 244 56 262 q 40 281 40 311 q 40 330 48 345 q 56 360 68 372 q 80 385 94 396 q 108 408 120 420 q 123 430 124 440 q 126 449 129 459 z"},">":{"x_min":0,"x_max":314,"ha":314,"o":"m 38 447 q 40 451 42 454 q 45 458 50 458 q 53 457 70 445 q 87 433 111 414 q 135 395 162 373 q 189 351 213 330 q 237 309 254 293 q 271 277 274 270 q 269 261 252 244 q 236 226 214 204 q 192 183 166 160 q 141 137 118 118 q 95 98 77 84 q 59 70 53 68 l 42 76 q 45 94 62 120 q 78 146 98 173 q 119 200 139 226 q 159 251 171 267 q 161 279 140 304 q 119 329 97 356 q 75 384 58 409 q 40 434 38 447 z"},"l":{"x_min":0,"x_max":203,"ha":203,"o":"m 21 703 q 50 703 80 700 q 110 697 139 697 q 141 554 139 414 q 137 273 137 131 q 137 108 138 92 q 140 76 144 62 q 149 49 158 36 q 168 23 183 6 q 142 4 102 4 q 61 3 20 3 l 20 11 q 38 23 48 40 q 58 57 64 76 q 69 95 70 116 q 72 136 72 156 q 72 230 73 303 q 74 376 74 450 q 74 496 74 544 q 73 591 65 636 q 61 658 48 672 q 34 686 21 703 z"},"8":{"x_min":0,"x_max":439,"ha":439,"o":"m 94 677 q 132 674 170 676 q 208 678 246 678 l 346 677 q 344 670 342 664 q 339 657 339 649 q 339 642 346 632 q 352 622 360 608 q 368 595 374 578 q 381 561 381 541 q 381 513 370 491 q 358 469 340 452 q 322 435 300 421 q 277 407 255 395 l 255 383 q 288 363 318 344 q 348 325 370 302 q 393 278 406 248 q 419 217 419 173 q 419 150 411 131 q 403 112 394 96 q 385 81 377 69 q 369 57 369 47 q 369 37 373 28 q 377 19 380 11 q 340 9 301 8 q 262 7 222 7 l 64 8 q 67 19 72 30 q 78 40 78 51 q 78 58 69 71 q 60 84 50 102 q 39 119 30 141 q 21 163 21 188 q 21 226 36 252 q 50 279 72 300 q 94 321 121 339 q 148 357 173 378 l 173 389 q 154 402 133 417 q 112 432 95 450 q 78 467 66 488 q 55 509 55 535 q 55 561 62 575 q 69 589 76 602 q 84 614 90 630 q 96 646 94 677 z m 133 536 q 133 524 141 502 q 149 480 162 458 q 174 437 189 421 q 204 405 218 405 q 231 405 246 420 q 262 436 275 456 q 288 477 296 498 q 305 520 305 532 q 305 550 300 567 q 296 584 286 598 q 276 612 262 620 q 247 629 227 629 q 185 629 159 604 q 133 578 133 536 z m 108 200 q 108 173 114 148 q 121 123 135 104 q 149 85 170 74 q 192 62 222 62 q 247 62 267 72 q 287 82 301 98 q 315 115 323 136 q 331 158 331 181 q 331 198 321 228 q 311 258 296 288 q 280 317 260 339 q 240 361 220 361 q 203 361 183 342 q 163 322 146 296 q 130 270 119 242 q 108 215 108 200 z"},"\\":{"x_min":0,"x_max":244,"ha":244,"o":"m 267 2 l 209 2 l -4 696 l 55 696 l 267 2 z"},"e":{"x_min":0,"x_max":333,"ha":333,"o":"m 92 465 q 148 465 202 466 q 257 468 313 468 q 286 436 278 408 q 269 381 267 356 q 265 332 262 311 q 258 290 242 270 q 226 251 190 232 q 153 214 84 196 l 84 191 q 84 171 90 149 q 97 127 109 108 q 121 88 139 76 q 157 63 180 63 q 206 63 220 74 q 233 85 240 102 q 248 119 252 139 q 256 159 263 177 l 274 181 l 294 174 q 294 145 289 112 q 284 80 271 52 q 258 23 234 4 q 211 -14 175 -14 q 134 -14 105 2 q 76 19 57 46 q 38 73 29 108 q 20 142 20 178 q 20 217 32 256 q 45 295 60 328 q 74 362 86 388 q 99 413 99 425 q 99 436 96 446 q 94 455 92 465 z m 80 229 l 81 213 q 147 226 180 268 q 214 309 214 375 q 214 381 208 390 q 203 398 196 398 q 182 398 167 398 q 152 398 138 395 q 125 392 114 370 q 104 349 96 321 q 89 293 84 267 q 80 241 80 229 z"},"b":{"x_min":0,"x_max":373,"ha":373,"o":"m 21 689 q 49 689 76 688 q 104 686 132 686 l 132 660 q 132 610 132 556 q 132 502 144 454 q 176 454 208 456 q 241 457 273 457 q 271 444 268 432 q 264 420 264 407 q 264 391 278 367 q 292 343 308 312 q 325 282 339 244 q 353 207 353 164 q 353 137 347 105 q 341 73 326 46 q 312 18 290 -1 q 267 -20 234 -20 q 215 -20 204 -16 q 193 -12 185 -4 q 177 3 170 12 q 163 22 151 34 q 121 20 90 7 q 59 -6 27 -14 q 35 4 48 18 q 62 33 67 53 q 75 81 76 112 q 78 142 78 171 q 78 226 79 284 q 80 341 80 398 q 80 456 77 514 q 74 571 66 625 q 63 644 49 656 q 35 669 20 678 z m 137 258 q 137 240 138 204 q 139 169 146 134 q 153 98 168 72 q 183 45 211 45 q 233 45 248 62 q 263 80 272 104 q 280 128 284 154 q 287 179 287 196 q 287 213 282 246 q 278 278 268 310 q 259 343 244 367 q 228 391 207 391 q 203 391 192 391 q 181 391 170 390 q 158 388 149 385 q 140 382 140 377 q 140 347 138 318 q 137 288 137 258 z"},"%":{"x_min":0,"x_max":549,"ha":549,"o":"m 353 696 l 412 696 l 199 2 l 141 2 z m 410 295 q 430 295 452 279 q 473 263 491 240 q 509 216 520 190 q 532 165 532 146 q 532 125 521 102 q 510 79 494 58 q 477 38 456 22 q 436 6 418 -3 q 397 -2 374 14 q 351 30 332 53 q 314 76 302 102 q 289 128 289 148 q 289 166 302 191 q 316 216 336 239 q 355 262 376 278 q 396 295 410 295 z m 339 178 q 339 163 348 140 q 358 116 372 94 q 387 73 405 58 q 423 42 440 42 l 454 51 q 462 62 471 78 q 480 95 480 109 q 480 155 460 183 q 439 211 406 238 q 401 242 396 247 q 392 252 385 252 q 375 252 366 244 q 358 235 352 224 q 346 212 342 200 q 339 187 339 178 z m 143 702 q 163 702 184 686 q 206 670 224 646 q 242 623 254 598 q 265 572 265 553 q 265 532 254 509 q 243 486 226 466 q 210 445 190 429 q 169 413 151 404 q 130 405 107 421 q 84 437 66 460 q 47 483 34 509 q 22 535 22 555 q 22 573 36 598 q 49 623 68 646 q 88 669 108 686 q 129 702 143 702 z m 72 585 q 72 570 82 546 q 91 523 106 502 q 120 480 138 464 q 156 449 173 449 l 187 458 q 195 469 204 486 q 213 502 213 516 q 213 562 192 590 q 172 618 139 645 q 134 649 130 654 q 125 659 118 659 q 108 659 100 650 q 91 642 85 630 q 79 619 76 606 q 72 594 72 585 z"},"m":{"x_min":0,"x_max":591,"ha":591,"o":"m 28 473 q 57 471 86 470 q 114 469 143 471 q 145 452 144 434 q 143 415 143 396 q 143 387 144 378 q 144 368 146 359 q 156 364 170 374 q 185 384 200 396 q 215 408 228 420 q 242 431 251 440 q 244 448 236 456 q 229 464 221 471 q 246 472 270 472 q 295 473 320 473 q 334 473 349 472 q 364 471 378 468 q 368 456 360 448 q 351 440 345 432 q 339 423 336 412 q 332 401 332 384 q 332 378 332 372 q 333 367 334 361 q 342 364 356 374 q 371 384 386 396 q 402 407 415 418 q 428 430 433 437 q 433 450 423 457 q 413 464 406 473 q 448 471 488 472 q 529 472 571 468 q 563 459 554 452 q 546 445 538 438 q 531 430 526 421 q 520 412 519 398 q 516 322 516 246 q 515 170 515 94 q 515 62 523 46 q 531 30 557 11 l 557 0 q 530 0 502 0 q 475 1 448 3 q 450 88 452 172 q 454 257 454 342 q 454 358 453 374 q 452 390 450 406 q 441 401 421 387 q 401 373 381 356 q 361 339 346 323 q 330 307 330 297 q 329 243 328 190 q 328 138 328 84 q 328 68 331 58 q 334 48 340 40 q 345 33 354 26 q 362 19 373 9 l 370 0 l 244 0 q 236 0 228 2 q 221 4 213 6 q 223 16 234 25 q 244 34 252 45 q 256 51 258 74 q 261 96 263 127 q 265 158 266 194 q 266 231 266 264 q 267 297 267 323 q 267 349 267 361 q 267 372 266 382 q 266 392 262 403 q 231 383 201 362 q 171 340 145 314 q 143 308 142 288 q 140 267 140 242 q 139 218 139 196 q 139 173 139 164 q 139 153 139 134 q 139 115 140 95 q 142 75 146 57 q 150 39 157 31 q 164 23 172 17 q 179 11 185 3 q 156 0 129 0 q 102 0 74 2 q 47 3 20 3 l 20 14 q 31 19 40 24 q 49 29 56 39 q 62 47 66 66 q 70 86 72 111 q 75 136 76 164 q 78 192 78 218 q 79 244 79 266 q 79 287 79 299 q 79 324 80 348 q 82 372 79 393 q 76 414 64 432 q 53 450 28 465 z"},"#":{"x_min":0,"x_max":492,"ha":492,"o":"m 314 9 q 312 0 304 0 l 273 0 q 268 0 265 3 q 262 6 263 11 l 293 223 l 164 223 q 156 170 148 116 q 140 62 134 9 q 132 0 124 0 l 93 0 q 88 0 85 3 q 82 6 83 11 l 113 223 l 30 223 q 25 223 22 226 q 19 228 20 233 l 24 262 q 26 270 34 270 l 120 270 q 125 307 130 340 q 134 373 140 410 l 56 410 q 51 410 48 413 q 45 416 46 421 l 50 449 q 52 458 60 458 l 147 458 q 155 509 161 558 q 167 608 175 659 q 175 668 184 668 l 214 668 q 219 668 222 665 q 225 662 224 657 l 197 458 l 325 458 q 333 508 340 558 q 348 609 354 659 q 356 668 364 668 l 394 668 q 399 668 402 665 q 405 662 404 657 l 377 458 l 455 458 q 459 458 462 455 q 465 452 464 447 l 460 419 q 458 410 451 410 l 370 410 q 365 375 360 341 q 354 307 350 270 l 428 270 q 433 270 436 267 q 439 264 438 260 l 434 231 q 432 223 424 223 l 344 223 z m 319 410 l 190 410 q 185 375 180 341 q 174 307 170 270 l 299 270 z"},",":{"x_min":0,"x_max":142,"ha":142,"o":"m 66 107 q 86 107 100 92 q 115 77 115 57 q 115 35 108 16 q 100 -3 90 -22 q 81 -40 74 -59 q 66 -78 66 -99 q 66 -112 69 -124 l 91 -123 q 100 -123 107 -126 q 114 -130 114 -141 q 114 -152 106 -161 q 97 -170 86 -170 q 72 -170 62 -164 q 53 -157 48 -146 q 43 -136 41 -124 q 39 -111 39 -99 q 39 -92 42 -76 q 46 -59 50 -42 q 53 -26 56 -13 q 60 0 60 0 q 39 5 24 16 q 8 26 8 52 q 8 75 26 91 q 43 107 66 107 z"},"n":{"x_min":0,"x_max":398,"ha":398,"o":"m 25 473 q 51 473 81 473 q 111 473 137 468 l 136 424 q 136 406 137 388 q 138 370 141 353 q 150 358 168 370 q 185 381 203 395 q 221 409 235 422 q 249 436 251 445 q 238 456 224 471 l 244 472 l 375 471 l 378 462 q 362 450 352 438 q 341 427 338 406 q 331 355 330 304 q 329 253 329 201 q 329 174 327 148 q 325 121 328 96 q 331 71 342 49 q 353 27 378 9 l 378 0 l 311 -1 q 303 -1 294 -1 q 286 -1 278 0 l 266 11 q 265 102 266 192 q 267 283 267 374 q 267 381 267 388 q 267 395 265 403 q 258 399 239 385 q 220 371 198 354 q 177 338 159 323 q 141 308 137 303 q 134 276 134 247 q 134 234 134 204 q 133 173 134 140 q 135 106 136 78 q 138 49 143 42 q 149 31 160 24 q 170 17 180 11 l 180 0 q 150 2 120 1 q 90 0 61 0 q 39 0 20 3 q 42 28 53 50 q 64 72 68 94 q 73 116 74 141 q 74 166 74 199 q 74 242 72 284 q 71 326 71 369 q 71 389 70 402 q 68 414 64 424 q 59 434 50 443 q 40 452 25 465 z"},"h":{"x_min":0,"x_max":409,"ha":409,"o":"m 21 703 q 29 705 38 705 q 46 705 55 705 l 99 705 q 108 705 116 705 q 125 705 133 703 q 137 640 136 576 q 135 513 135 450 q 135 441 135 428 q 135 414 136 400 q 136 386 137 374 q 138 361 141 353 q 148 358 164 370 q 181 383 198 398 q 216 412 230 425 q 245 438 248 443 q 246 451 239 454 q 232 458 227 465 l 227 473 l 335 473 l 389 473 q 373 453 363 443 q 353 433 346 426 q 339 419 336 414 q 332 408 330 396 q 329 384 329 364 q 329 344 329 309 q 329 257 331 206 q 333 154 333 102 q 333 79 336 67 q 339 55 345 47 q 351 39 362 31 q 372 23 387 9 q 370 5 353 4 q 336 3 319 3 l 272 3 q 267 16 266 54 q 264 91 264 135 q 265 179 266 220 q 267 262 267 282 q 267 313 267 344 q 267 375 265 406 q 230 385 200 358 q 169 332 137 308 l 137 104 q 137 84 140 72 q 142 59 148 50 q 154 40 163 31 q 172 22 185 9 l 182 3 q 147 5 113 3 q 79 1 44 1 q 38 1 32 1 q 26 1 20 3 q 28 14 38 22 q 48 31 56 42 q 61 49 64 79 q 67 109 69 150 q 71 191 72 238 q 73 286 73 329 q 73 372 73 406 q 73 440 73 454 q 73 499 74 549 q 74 599 65 644 q 63 654 58 662 q 52 669 46 676 q 39 682 32 688 q 26 695 21 703 z"},"z":{"x_min":0,"x_max":412,"ha":412,"o":"m 45 481 q 93 481 142 480 q 190 478 238 478 q 276 478 314 478 q 351 479 389 484 l 392 473 q 377 465 356 441 q 336 417 316 388 q 297 359 283 330 q 269 301 268 285 q 279 283 290 284 q 301 285 312 285 l 313 269 l 312 235 q 294 235 276 235 q 257 235 239 229 q 234 222 219 195 q 204 168 188 138 q 173 107 161 80 q 149 54 149 48 q 149 39 156 34 q 164 29 172 29 q 194 29 218 36 q 241 44 264 56 q 288 68 309 83 q 330 98 346 112 l 351 109 l 350 66 q 350 50 359 36 q 368 23 378 11 q 366 8 334 6 q 301 5 264 4 q 227 4 193 4 q 159 5 143 5 l 20 5 l 20 17 q 40 26 62 52 q 85 79 106 111 q 126 143 141 176 q 156 208 160 229 q 150 231 141 232 q 132 233 122 235 q 122 248 122 260 q 121 273 119 285 q 137 285 156 285 q 174 285 192 283 q 198 293 210 314 q 222 335 234 358 q 246 382 254 404 q 263 425 263 435 q 263 447 252 450 q 240 454 231 454 q 208 454 188 446 q 169 439 151 428 q 133 417 116 404 q 99 390 82 378 q 79 387 80 396 q 80 406 80 415 q 80 437 68 450 q 56 464 45 481 z"},"B":{"x_min":0,"x_max":490,"ha":490,"o":"m 27 703 l 39 704 l 393 704 l 410 703 q 404 692 396 681 q 389 670 389 657 q 389 643 399 630 q 409 617 422 600 q 434 584 444 562 q 454 540 454 509 q 454 476 442 455 q 431 434 412 420 q 393 406 368 396 q 344 387 318 378 q 347 366 374 354 q 401 341 422 324 q 443 307 456 282 q 469 257 469 221 q 469 194 459 171 q 449 148 437 128 q 425 107 415 90 q 405 73 405 58 q 405 41 417 32 q 429 23 443 17 l 443 6 q 358 6 274 4 q 189 2 104 2 l 20 3 q 33 17 48 28 q 63 39 71 56 q 74 62 76 98 q 79 134 80 186 q 81 237 82 297 q 83 357 83 412 q 83 467 83 510 q 83 553 83 569 q 83 605 81 620 q 79 636 73 646 q 67 656 56 666 q 45 677 27 703 z m 210 630 q 199 630 188 628 q 176 626 165 624 q 161 613 160 599 q 158 585 158 570 q 157 555 157 541 q 157 527 157 515 q 157 510 157 492 q 157 474 158 454 q 160 435 164 420 q 167 404 173 403 q 181 401 189 402 q 197 402 205 402 q 238 402 269 404 q 300 407 324 418 q 347 429 361 452 q 375 476 375 518 q 375 526 372 544 q 370 563 366 582 q 361 601 354 616 q 346 630 336 630 z m 163 342 q 158 316 157 288 q 156 261 156 235 q 156 225 156 202 q 155 178 156 152 q 157 126 160 104 q 162 83 167 78 q 200 77 233 76 q 266 76 298 76 q 329 76 346 83 q 363 90 371 104 q 379 118 381 139 q 383 160 383 188 q 383 237 374 268 q 364 300 344 317 q 323 334 290 340 q 258 347 211 347 q 199 347 186 346 q 174 346 163 342 z"},"K":{"x_min":0,"x_max":526,"ha":526,"o":"m 20 706 q 70 704 119 702 q 168 701 218 703 l 221 695 q 194 676 180 658 q 167 639 162 618 q 156 598 156 574 q 156 549 156 518 q 156 483 155 444 q 154 406 159 373 l 168 373 q 189 403 213 433 q 237 463 260 494 q 283 525 304 557 q 324 589 340 622 q 334 622 328 623 q 321 624 315 624 q 301 624 290 608 q 279 593 267 575 q 255 557 240 542 q 226 526 205 526 q 193 526 184 534 q 176 543 176 555 q 176 563 180 570 q 183 578 191 580 l 227 569 q 248 596 259 624 q 270 653 285 683 q 291 696 303 700 q 315 703 328 703 q 370 703 410 702 q 451 700 493 700 l 493 692 q 475 685 454 667 q 434 649 412 624 q 391 600 370 571 q 350 542 331 514 q 312 487 296 462 q 280 437 269 420 l 269 415 q 269 410 280 385 q 291 360 308 324 q 324 289 344 248 q 365 207 384 170 q 402 133 417 104 q 432 76 437 65 q 449 42 468 30 q 486 19 506 6 q 475 -2 440 -1 q 405 0 373 0 q 338 0 304 3 q 318 14 330 24 q 343 34 343 54 q 343 63 336 84 q 328 106 316 133 q 303 160 288 190 q 274 220 260 248 q 246 276 234 298 q 223 321 217 333 l 206 333 q 196 317 187 306 q 178 296 172 286 q 165 275 161 262 q 157 248 157 227 l 157 104 q 157 67 172 46 q 186 26 215 6 l 214 -3 q 195 -2 168 -2 q 142 -2 115 -2 q 88 -1 63 0 q 38 1 22 6 q 31 17 42 26 q 53 34 61 45 q 67 53 71 76 q 75 100 78 131 q 80 162 82 197 q 83 232 84 264 q 84 296 84 322 q 84 348 84 360 q 84 418 83 476 q 82 533 82 591 q 82 629 68 654 q 54 678 20 695 z"},"R":{"x_min":0,"x_max":532,"ha":532,"o":"m 417 713 l 397 676 q 398 658 410 644 q 423 629 438 612 q 452 594 464 570 q 476 547 476 511 q 476 474 462 450 q 449 427 428 410 q 406 394 380 382 q 353 369 327 354 q 330 334 345 294 q 360 253 378 208 q 397 163 416 122 q 435 82 446 63 q 457 44 474 33 q 492 22 512 16 l 512 7 q 491 5 470 4 q 450 3 429 3 q 415 3 402 4 q 389 5 375 7 q 340 85 314 164 q 288 243 256 321 q 254 327 250 332 q 245 338 237 338 q 221 338 204 332 q 186 327 172 318 q 171 276 170 234 q 169 192 169 150 q 169 127 171 107 q 173 87 180 70 q 186 53 200 40 q 213 26 237 16 l 237 4 l 207 3 l 71 3 l 33 4 l 33 13 q 59 30 72 48 q 85 66 90 87 q 96 108 96 132 q 96 157 96 186 q 96 212 96 238 q 95 264 94 290 l 86 307 q 84 299 84 290 q 83 280 80 271 q 78 262 72 256 q 67 250 56 250 q 42 250 31 260 q 20 269 20 283 q 20 296 26 305 q 33 314 43 320 q 53 327 64 332 q 74 337 83 343 q 90 348 93 366 q 96 383 97 404 q 98 425 98 445 q 97 465 97 475 l 96 606 q 96 628 92 642 q 87 655 79 665 q 71 675 60 684 q 48 693 34 707 q 79 715 127 714 q 175 714 220 714 q 270 714 318 714 q 367 713 417 713 z m 178 634 q 173 601 172 568 q 170 534 170 500 q 170 493 170 472 q 169 452 170 430 q 170 409 173 392 q 176 375 184 375 q 185 375 198 379 q 212 383 229 388 q 246 394 261 398 q 276 403 281 405 q 302 411 322 422 q 341 433 356 448 q 371 464 380 484 q 389 503 389 527 q 389 536 386 554 q 383 572 377 590 q 371 608 362 622 q 353 635 342 635 z"},"T":{"x_min":0,"x_max":558,"ha":558,"o":"m 538 713 q 523 678 508 656 q 492 633 480 610 q 468 587 460 557 q 452 527 452 478 q 452 460 456 442 q 460 425 469 410 q 484 415 496 415 q 509 415 517 406 q 525 396 525 384 q 525 367 514 358 q 502 348 486 348 q 463 348 447 363 q 431 378 421 400 q 411 421 407 445 q 403 469 403 487 q 403 529 416 566 q 430 604 442 643 q 428 654 412 658 q 395 663 378 663 q 357 663 344 654 q 332 644 326 630 q 319 616 317 598 q 315 580 315 564 q 315 450 313 338 q 311 225 311 111 q 311 88 315 74 q 319 60 327 50 q 335 40 348 32 q 360 24 378 13 q 355 8 333 7 q 311 6 288 6 q 256 6 221 6 q 186 5 154 10 q 165 19 178 24 q 191 30 201 41 q 211 51 218 79 q 224 107 228 144 q 232 182 234 224 q 237 267 238 306 q 239 345 239 377 q 239 409 239 425 q 239 438 240 461 q 242 484 242 510 q 242 537 240 564 q 239 591 232 612 q 226 634 214 648 q 202 662 182 662 q 176 662 166 660 q 155 658 145 654 q 135 650 128 644 q 120 638 120 631 q 120 613 124 594 q 128 575 134 556 q 139 538 143 518 q 147 499 147 480 q 147 462 143 438 q 139 415 130 394 q 120 373 104 358 q 89 344 65 344 q 48 344 36 354 q 25 365 25 382 q 25 398 32 404 q 38 409 48 410 q 57 412 67 412 q 77 411 85 416 q 90 419 92 429 q 95 439 96 452 q 98 464 98 476 q 99 488 99 493 q 99 539 92 565 q 84 591 73 612 q 62 632 48 653 q 33 674 20 710 q 70 706 120 709 q 169 712 219 712 z"},"P":{"x_min":0,"x_max":494,"ha":494,"o":"m 384 705 l 422 704 q 414 693 405 683 q 396 673 396 659 q 396 649 408 636 q 420 624 434 606 q 449 589 461 566 q 473 542 473 512 q 473 469 458 442 q 444 414 420 396 q 395 379 364 368 q 333 358 300 351 q 266 344 232 336 q 199 329 171 318 q 170 270 169 222 q 168 175 168 127 q 168 102 171 86 q 174 69 182 56 q 189 42 202 30 q 214 17 234 2 q 211 -3 186 -4 q 160 -6 134 -6 q 107 -6 80 -5 q 54 -4 31 -4 l 32 4 q 52 15 64 32 q 76 48 82 68 q 89 87 91 108 q 93 129 93 150 q 93 188 92 226 q 91 263 90 301 l 76 296 q 77 290 78 284 q 79 277 79 271 q 79 260 70 252 q 62 244 51 244 q 39 244 30 254 q 20 265 20 276 q 20 291 28 300 q 35 310 46 316 q 57 323 68 330 q 80 336 88 346 q 91 401 93 455 q 95 509 95 564 q 95 585 93 605 q 91 625 84 642 q 77 659 64 673 q 51 687 30 696 l 30 704 q 119 699 207 702 q 295 705 384 705 z m 176 626 q 171 606 170 585 q 169 564 169 543 q 169 500 170 458 q 172 415 172 371 q 201 374 238 384 q 276 394 309 412 q 342 430 365 457 q 388 484 388 520 q 388 534 385 554 q 382 573 374 590 q 367 608 356 620 q 344 632 326 632 q 288 632 251 630 q 214 628 176 626 z"},"|":{"x_min":0,"x_max":500,"ha":500,"o":"m 223 744 l 278 744 l 278 -244 l 223 -244 l 223 744 z"},"t":{"x_min":0,"x_max":251,"ha":251,"o":"m 201 700 q 186 671 176 648 q 166 626 160 604 q 153 581 150 556 q 147 532 147 499 q 147 488 156 484 q 164 479 176 478 q 187 477 199 478 q 211 480 217 481 l 231 476 q 227 458 220 440 q 213 423 206 406 q 200 389 196 372 q 191 354 191 335 q 191 324 204 320 q 217 316 225 311 q 225 300 218 290 q 211 279 198 279 q 182 279 175 296 q 168 312 168 325 q 168 349 172 372 q 176 396 176 420 l 148 420 q 148 412 146 403 q 145 394 145 386 l 145 106 q 145 87 148 74 q 151 61 157 50 q 163 40 172 30 q 182 20 195 8 q 173 6 152 5 q 131 4 109 4 q 88 4 66 5 q 45 6 24 8 q 38 22 53 34 q 68 45 75 64 q 79 75 80 104 q 82 132 83 164 q 84 196 84 226 q 84 255 84 269 q 84 279 84 301 q 85 323 84 347 q 84 371 82 392 q 81 412 78 420 l 39 419 l 20 420 q 24 434 26 450 q 28 465 23 479 l 55 478 q 75 478 79 486 q 83 494 83 512 q 83 533 80 544 q 78 555 72 564 q 67 572 60 581 q 52 590 42 605 q 65 612 88 626 q 111 641 132 656 q 152 671 170 684 q 187 697 201 700 z"},"M":{"x_min":0,"x_max":883,"ha":883,"o":"m 26 703 q 64 700 90 702 q 115 703 131 704 q 147 704 154 700 q 162 696 166 684 q 169 671 169 646 q 169 621 169 580 q 169 566 170 552 q 170 538 172 524 q 185 534 200 548 q 214 563 228 580 q 242 596 254 613 q 266 630 275 644 q 283 658 282 670 q 281 683 281 697 q 336 699 390 700 q 445 700 500 700 q 485 682 476 666 q 467 651 462 635 q 458 619 457 602 q 456 584 456 561 l 457 521 q 475 533 496 554 q 518 576 537 602 q 556 627 568 654 q 580 680 578 703 q 607 698 636 698 q 665 698 694 698 l 799 698 q 815 698 827 694 q 803 649 784 609 q 765 569 752 529 q 740 489 733 446 q 726 402 726 350 q 726 278 744 207 q 762 136 799 73 q 811 53 828 38 q 846 22 863 6 q 852 5 842 5 q 832 5 821 5 l 740 6 q 718 35 701 79 q 684 123 672 172 q 660 220 654 268 q 648 315 648 351 q 648 387 654 420 q 660 454 668 488 q 676 521 684 554 q 693 587 699 622 l 694 627 l 607 627 q 605 627 594 615 q 583 603 567 584 q 551 566 533 544 q 515 522 499 502 q 483 482 470 466 q 458 450 455 445 q 454 431 454 418 q 454 406 454 392 q 459 380 470 378 q 481 375 492 375 q 512 375 532 377 q 552 379 572 381 q 566 366 558 352 q 551 339 543 325 q 529 322 515 322 q 501 322 487 322 q 469 322 453 319 q 455 271 454 224 q 452 177 452 129 q 452 100 454 86 q 455 71 460 60 q 466 50 476 38 q 485 27 502 6 l 335 5 l 314 6 q 332 24 344 40 q 357 55 365 72 q 373 88 376 108 q 380 127 380 152 q 380 194 380 236 q 380 278 375 319 l 364 325 q 347 325 329 324 q 311 322 294 322 q 280 353 258 378 q 281 378 304 376 q 327 374 350 374 l 373 375 q 378 379 380 402 q 383 426 384 454 q 385 483 385 510 q 385 536 385 545 q 385 565 384 584 q 382 604 377 624 q 366 623 356 624 q 345 626 334 626 q 319 626 312 622 q 304 617 296 605 q 270 567 239 534 q 208 500 179 465 q 173 458 170 435 q 167 412 166 380 q 164 347 164 310 q 163 274 163 240 q 163 205 164 178 q 164 151 164 138 q 164 116 165 98 q 166 80 172 65 q 178 50 190 38 q 202 25 224 14 l 224 6 q 173 8 122 7 q 71 6 20 8 l 20 20 q 41 21 54 35 q 68 49 76 70 q 83 91 86 117 q 88 143 88 168 q 88 194 87 216 q 86 238 86 252 q 86 337 89 420 q 92 503 92 588 q 92 623 78 654 q 64 684 26 694 z"},"g":{"x_min":0,"x_max":361,"ha":361,"o":"m 338 468 q 314 440 303 416 q 292 393 289 369 q 286 345 287 318 q 288 291 288 256 q 288 202 287 146 q 286 91 291 37 q 292 18 300 3 q 308 -12 317 -26 q 326 -41 333 -56 q 340 -72 340 -91 q 340 -115 326 -136 q 313 -158 294 -176 q 274 -195 252 -212 q 229 -228 212 -242 l 118 -243 q 101 -243 83 -242 q 65 -242 48 -241 q 52 -227 67 -200 q 82 -172 102 -145 q 121 -118 142 -98 q 163 -78 179 -78 q 188 -78 195 -86 q 202 -95 202 -103 q 202 -111 197 -114 q 192 -118 184 -120 q 177 -121 169 -120 q 161 -120 156 -120 q 145 -134 133 -148 q 121 -163 119 -182 l 197 -183 q 244 -183 262 -166 q 280 -148 283 -101 q 275 -81 261 -64 q 247 -47 236 -28 q 227 -11 226 8 q 226 27 221 45 q 205 22 186 6 q 168 -10 138 -10 q 105 -10 82 10 q 60 29 46 58 q 32 87 26 120 q 20 153 20 179 q 20 222 34 260 q 49 298 66 332 q 83 367 96 400 q 110 432 108 465 q 159 465 210 466 q 261 468 312 468 z m 197 403 q 181 403 166 402 q 150 400 134 398 l 123 387 q 106 347 91 306 q 76 266 76 222 q 76 204 80 176 q 85 147 96 120 q 106 94 122 75 q 139 56 163 56 q 187 56 200 76 q 213 96 219 123 q 225 150 226 178 q 227 205 227 221 q 227 266 226 310 q 225 353 224 398 q 218 402 211 402 q 204 403 197 403 z"},"j":{"x_min":0,"x_max":211,"ha":211,"o":"m 93 656 q 112 656 125 646 q 138 637 138 617 q 138 598 125 584 q 112 571 92 571 q 75 571 59 582 q 43 592 43 611 q 43 637 56 646 q 69 656 93 656 z m 22 471 q 50 473 78 472 q 106 471 134 473 q 138 458 139 420 q 140 382 140 339 q 139 296 138 256 q 137 215 137 194 q 137 161 138 128 q 139 95 141 62 q 142 41 150 25 q 158 9 167 -7 q 176 -23 184 -41 q 191 -59 191 -84 q 191 -99 182 -118 q 173 -137 161 -158 q 149 -178 136 -197 q 123 -216 116 -229 q 92 -229 68 -230 q 44 -232 20 -232 q 29 -221 39 -210 q 49 -200 49 -185 l 56 -165 l 97 -166 q 123 -166 131 -154 q 139 -142 139 -117 q 139 -95 128 -76 q 118 -58 106 -40 q 94 -22 84 -4 q 73 14 73 37 l 73 143 q 73 152 73 175 q 73 198 73 228 q 73 258 72 290 q 72 323 70 352 q 69 380 68 400 q 66 421 63 426 q 55 440 42 448 q 30 457 22 471 z"},"i":{"x_min":0,"x_max":205,"ha":205,"o":"m 94 655 q 111 655 127 643 q 143 631 143 612 q 143 592 128 578 q 112 565 93 565 q 75 565 61 580 q 47 595 47 613 q 47 629 63 642 q 79 655 94 655 z m 22 473 q 32 472 49 472 q 66 472 84 471 q 102 470 118 469 q 133 468 140 465 q 138 451 138 436 q 138 422 138 408 l 138 213 q 138 205 138 180 q 138 156 139 129 q 140 102 142 79 q 143 56 146 51 q 154 38 165 29 q 176 20 185 9 q 153 3 120 1 q 87 -1 55 -1 q 35 -1 20 3 q 27 11 35 17 q 43 23 50 30 q 56 37 61 45 q 66 53 68 65 q 72 96 72 127 q 73 158 73 189 l 73 374 q 73 407 62 428 q 51 448 22 465 z"},"y":{"x_min":0,"x_max":406,"ha":406,"o":"m 371 480 l 386 479 q 381 471 374 465 q 367 459 360 452 q 354 446 348 439 q 343 432 340 423 q 329 385 328 344 q 328 302 328 264 q 328 216 330 168 q 331 120 331 72 q 331 39 338 18 q 345 -2 354 -18 q 362 -35 369 -50 q 376 -65 376 -86 q 376 -113 364 -130 q 353 -148 336 -161 q 319 -174 300 -186 q 281 -197 265 -213 q 257 -221 250 -229 q 244 -237 236 -243 q 186 -243 136 -242 q 87 -242 37 -238 q 46 -226 66 -201 q 87 -176 110 -151 q 134 -126 157 -107 q 180 -88 195 -88 q 206 -88 214 -93 q 221 -98 221 -110 q 221 -122 216 -126 q 211 -131 204 -131 q 196 -131 188 -130 q 181 -128 175 -128 q 173 -128 170 -129 q 167 -130 165 -131 q 154 -142 144 -153 q 133 -164 128 -179 q 164 -182 201 -182 q 222 -182 242 -178 q 263 -175 279 -165 q 295 -155 305 -139 q 315 -123 315 -97 q 315 -86 308 -76 q 302 -65 294 -54 q 285 -42 278 -29 q 270 -16 269 0 q 266 27 266 54 q 266 80 264 107 q 252 102 237 92 q 222 83 208 72 q 193 60 180 48 q 167 35 160 25 q 167 23 173 20 q 179 16 185 14 l 185 3 l 74 2 q 60 2 47 2 q 34 2 20 3 q 29 20 43 32 q 57 44 63 62 q 68 77 70 104 q 73 131 74 160 q 75 190 75 218 q 75 246 75 263 q 75 301 76 327 q 78 353 76 376 q 73 398 64 421 q 55 444 33 476 q 41 477 48 477 q 56 477 64 477 l 129 476 q 139 476 140 466 q 142 455 142 448 q 141 361 140 276 q 138 190 138 103 q 138 83 144 65 q 184 99 208 116 q 233 134 246 146 q 260 157 265 168 q 270 179 270 200 q 271 222 269 259 q 267 296 267 360 q 267 372 267 388 q 267 404 268 420 q 268 437 270 452 q 271 468 274 479 z"},"@":{"x_min":0,"x_max":746,"ha":746,"o":"m 608 -55 l 623 -77 q 579 -115 519 -135 q 459 -155 401 -155 q 329 -155 266 -127 q 202 -99 156 -52 q 109 -4 82 60 q 55 123 55 195 q 55 267 82 330 q 109 394 156 442 q 202 489 265 517 q 328 545 400 545 q 462 545 518 524 q 574 502 616 463 q 658 424 682 370 q 707 317 707 253 q 707 203 690 158 q 674 113 644 78 q 614 44 572 24 q 529 4 477 4 q 451 4 432 16 q 412 27 412 57 q 412 69 414 81 q 417 93 420 105 l 416 107 q 406 89 393 71 q 380 53 364 38 q 348 23 328 14 q 309 5 287 5 q 240 5 218 37 q 195 69 195 112 q 195 152 214 200 q 233 247 264 288 q 296 329 336 357 q 377 385 420 385 q 466 385 483 342 l 488 341 l 501 382 l 554 381 q 545 350 530 308 q 516 266 502 220 q 488 175 478 130 q 468 86 468 51 q 468 37 477 34 q 486 30 497 30 q 536 30 569 50 q 602 71 625 103 q 648 135 661 174 q 674 212 674 247 q 674 304 652 353 q 631 402 594 438 q 558 474 508 494 q 458 515 401 515 q 335 515 278 490 q 220 465 178 422 q 136 378 112 320 q 88 262 88 196 q 88 130 112 72 q 137 13 180 -30 q 222 -74 280 -100 q 338 -125 404 -125 q 460 -125 512 -106 q 563 -88 608 -55 z m 468 321 q 468 341 457 354 q 446 368 425 368 q 404 368 384 352 q 363 336 344 310 q 325 285 309 253 q 293 221 281 190 q 269 158 262 130 q 256 101 256 83 q 256 60 265 43 q 274 26 300 26 q 322 26 344 42 q 365 59 384 86 q 402 113 418 146 q 433 179 444 212 q 456 244 462 274 q 468 303 468 321 z"},".":{"x_min":0,"x_max":148,"ha":148,"o":"m 78 101 q 98 101 112 86 q 127 71 127 51 q 127 22 110 10 q 94 -3 67 -3 q 48 -3 34 12 q 20 28 20 46 q 20 69 38 85 q 55 101 78 101 z"},"p":{"x_min":0,"x_max":369,"ha":369,"o":"m 230 478 q 260 478 282 460 q 305 442 320 415 q 334 388 341 357 q 348 326 348 301 q 348 254 334 214 q 320 174 303 141 q 286 108 272 82 q 258 57 258 41 q 258 30 263 20 q 268 11 271 0 q 251 -2 230 -1 q 209 0 189 0 q 165 0 141 -3 l 141 -84 l 142 -176 q 142 -191 146 -199 q 150 -207 156 -213 q 161 -219 166 -226 q 171 -232 174 -243 q 162 -245 150 -245 q 139 -245 127 -245 l 66 -245 q 55 -245 43 -245 q 31 -245 20 -243 q 27 -233 34 -228 q 42 -223 49 -218 q 56 -213 61 -205 q 66 -197 68 -182 q 78 -105 75 -24 q 72 58 72 136 q 72 198 75 258 q 78 319 78 381 q 78 398 74 410 q 70 421 62 429 q 55 437 46 444 q 36 452 24 462 l 24 471 q 53 469 82 467 q 110 465 139 465 q 143 456 142 446 q 142 436 144 426 q 155 436 164 445 q 172 454 182 462 q 191 469 202 474 q 214 478 230 478 z m 141 87 q 141 65 146 62 q 151 59 170 59 q 184 59 198 60 q 211 61 225 65 q 238 69 248 95 q 259 121 266 154 q 274 187 278 218 q 282 248 282 261 q 282 280 280 305 q 277 330 268 352 q 260 375 244 391 q 229 407 204 407 q 188 407 176 399 q 165 391 158 379 q 151 367 148 352 q 145 338 145 325 q 145 265 143 206 q 141 147 141 87 z"},"X":{"x_min":0,"x_max":586,"ha":586,"o":"m 46 710 q 52 711 58 712 q 65 712 71 712 q 116 712 162 713 q 208 714 253 710 q 246 704 238 698 q 231 692 224 686 q 218 680 214 672 q 210 664 210 653 q 210 640 220 613 q 231 586 246 556 q 260 526 274 498 q 288 471 295 458 q 301 461 311 477 q 321 493 332 516 q 344 538 356 564 q 368 590 378 614 q 388 637 394 656 q 400 675 400 682 l 359 707 q 404 710 448 710 q 493 711 538 711 q 545 711 551 711 q 557 711 564 710 q 547 696 528 684 q 509 671 495 654 q 490 648 478 626 q 465 604 448 574 q 432 544 414 510 q 396 476 381 446 q 366 417 356 396 q 347 375 347 371 q 347 365 358 340 q 368 316 384 282 q 401 249 421 210 q 441 171 460 138 q 478 104 492 80 q 506 55 512 49 q 524 36 540 28 q 555 21 566 7 q 537 4 506 4 q 476 5 447 5 q 426 5 405 6 q 384 7 364 10 q 370 19 378 23 q 387 27 394 31 q 402 35 407 42 q 412 49 412 65 q 412 72 406 90 q 399 109 389 133 q 379 157 367 183 q 355 209 343 232 q 331 255 321 272 q 311 290 305 296 q 300 288 290 268 q 279 249 266 224 q 252 198 238 170 q 224 143 212 118 q 200 94 192 76 q 185 58 185 52 q 185 38 195 28 q 205 18 213 10 q 165 8 116 8 q 68 7 20 7 l 20 16 q 36 20 51 26 q 66 32 78 44 q 83 49 99 76 q 115 102 135 138 q 155 175 177 216 q 199 258 218 294 q 236 331 248 357 q 260 383 260 388 q 260 394 251 415 q 242 436 228 464 q 213 493 196 526 q 179 558 163 587 q 147 616 134 637 q 121 658 115 665 q 101 681 82 688 q 62 696 46 710 z"},"*":{"x_min":0,"x_max":492,"ha":492,"o":"m 246 675 q 255 675 264 671 q 273 667 273 656 q 273 636 266 615 q 259 594 255 574 l 261 565 q 268 569 280 576 q 291 583 303 590 q 315 598 326 604 q 337 609 343 609 q 356 609 362 598 q 367 586 367 575 q 367 561 354 557 q 342 553 324 552 q 307 552 290 550 q 273 549 264 542 q 269 536 280 526 q 292 517 304 506 q 315 496 324 487 q 333 478 333 473 q 333 462 323 452 q 313 442 302 442 q 290 442 283 453 q 276 464 270 478 q 265 493 260 508 q 254 523 246 531 q 237 523 232 508 q 226 494 220 479 q 215 464 208 453 q 201 442 191 442 q 180 442 170 452 q 159 461 159 472 q 159 478 168 488 q 176 497 188 507 q 199 517 210 526 q 222 536 227 542 q 218 548 200 550 q 183 551 166 552 q 150 554 138 558 q 125 563 125 576 q 125 585 130 597 q 136 609 147 609 q 153 609 165 603 q 177 597 190 590 q 203 582 214 575 q 225 568 229 565 q 236 568 236 576 q 236 596 227 616 q 218 635 218 655 q 218 666 228 670 q 237 675 246 675 z"},"Y":{"x_min":0,"x_max":517,"ha":517,"o":"m 32 707 q 64 705 96 706 q 129 706 161 702 q 159 650 161 599 q 163 548 163 496 q 163 399 160 302 q 156 205 156 108 q 156 97 158 87 q 161 77 175 77 q 200 77 224 78 q 248 80 273 80 q 282 90 296 106 q 311 122 326 140 q 340 158 350 176 q 361 193 362 206 q 367 303 368 399 q 369 495 369 592 q 369 619 366 632 q 362 645 356 654 q 351 663 343 672 q 335 682 326 702 l 359 703 l 473 703 l 497 702 q 487 688 474 678 q 461 667 454 651 q 450 641 448 605 q 445 569 444 518 q 442 468 441 409 q 440 350 440 294 q 440 239 440 194 q 440 148 440 125 q 440 107 448 88 q 457 70 466 50 q 476 30 484 6 q 493 -17 493 -46 q 493 -70 479 -90 q 465 -109 444 -126 q 424 -142 402 -156 q 380 -171 364 -183 q 359 -187 351 -198 q 343 -208 334 -218 q 325 -229 317 -237 q 309 -245 304 -245 q 238 -245 172 -241 q 107 -237 41 -242 q 41 -230 53 -212 q 65 -194 84 -174 q 102 -153 124 -132 q 147 -112 170 -96 q 192 -79 212 -69 q 231 -59 243 -59 q 260 -59 273 -68 q 286 -77 286 -95 q 286 -106 276 -114 q 266 -122 255 -122 q 244 -122 235 -114 q 226 -105 212 -105 q 197 -117 182 -130 q 166 -143 157 -161 q 176 -166 196 -168 q 215 -169 235 -169 q 261 -169 286 -167 q 311 -165 337 -161 q 372 -141 392 -110 q 411 -78 411 -38 q 411 -20 404 -2 q 397 16 388 34 q 379 53 371 74 q 363 94 361 116 l 353 119 q 338 102 324 81 q 311 60 296 42 q 281 24 262 12 q 244 0 219 0 q 169 0 120 1 q 70 2 20 2 l 20 13 q 50 34 63 58 q 76 81 80 107 q 83 133 80 162 q 78 190 78 222 q 78 306 82 389 q 86 472 86 556 q 86 598 76 634 q 65 670 32 699 z"},"c":{"x_min":0,"x_max":312,"ha":312,"o":"m 93 465 q 141 463 190 464 q 238 465 286 465 q 282 428 265 392 q 248 355 238 319 q 246 313 254 308 q 262 303 266 294 q 265 283 258 274 q 252 265 240 265 q 223 265 216 280 q 208 295 208 309 q 208 329 214 348 q 219 367 223 387 q 201 394 174 394 q 150 394 122 389 q 102 348 90 304 q 79 261 79 216 q 79 193 85 166 q 91 138 104 114 q 116 91 136 75 q 156 59 184 59 q 203 59 215 68 q 227 76 234 89 q 242 102 247 118 q 252 133 256 146 q 259 159 264 168 q 268 176 275 176 q 286 176 289 170 q 292 165 292 156 q 292 125 286 94 q 280 64 265 40 q 250 15 226 0 q 201 -15 164 -15 q 125 -15 98 3 q 71 21 54 50 q 37 78 29 112 q 21 146 21 179 q 21 218 33 256 q 45 293 60 326 q 75 358 87 384 q 99 410 99 426 q 99 436 97 446 q 95 455 93 465 z"},"!":{"x_min":0,"x_max":247,"ha":247,"o":"m 26 706 q 76 708 125 707 q 174 706 224 708 l 227 699 q 189 678 174 653 q 160 628 160 584 q 160 519 162 454 q 164 390 164 325 q 164 313 164 297 q 163 281 160 264 q 158 248 152 234 q 147 219 138 210 l 108 210 q 88 237 86 264 q 83 292 84 324 l 89 582 q 89 598 85 616 q 81 633 73 648 q 65 664 52 676 q 40 689 24 695 z m 125 102 q 145 102 160 87 q 174 72 174 52 q 174 23 158 10 q 141 -2 114 -2 q 95 -2 81 14 q 67 29 67 47 q 67 70 84 86 q 102 102 125 102 z"},"/":{"x_min":0,"x_max":244,"ha":244,"o":"m 208 696 l 267 696 l 54 2 l -4 2 l 208 696 z"},"[":{"x_min":0,"x_max":293,"ha":293,"o":"m 115 697 l 261 697 l 261 684 q 243 682 225 679 q 207 676 190 668 l 190 -92 q 207 -99 225 -102 q 243 -105 261 -107 l 261 -120 l 115 -120 z"},"6":{"x_min":0,"x_max":461,"ha":461,"o":"m 284 683 q 305 683 327 676 q 349 670 366 658 q 384 646 395 628 q 406 609 406 585 q 406 568 396 557 q 386 546 369 546 q 373 556 376 566 q 380 575 380 586 q 380 599 372 610 q 365 620 354 627 q 342 634 329 638 q 316 641 304 641 q 267 641 239 626 q 211 612 190 588 q 168 564 153 532 q 138 501 128 468 q 119 434 115 400 q 111 366 111 337 q 111 302 116 256 q 121 209 136 166 q 151 123 180 94 q 208 64 255 64 q 284 64 304 82 q 325 100 338 126 q 350 152 356 182 q 361 212 361 235 q 361 256 355 281 q 349 306 337 327 q 325 348 306 362 q 287 376 262 376 q 239 376 224 358 q 209 341 209 318 q 209 296 220 286 q 231 277 249 269 l 259 305 q 267 307 272 307 q 296 307 296 281 q 296 263 281 252 q 266 242 249 242 q 218 242 198 266 q 177 290 177 320 q 177 342 186 360 q 194 377 208 389 q 222 401 240 408 q 259 414 280 414 q 317 414 346 396 q 376 379 397 351 q 418 323 430 288 q 441 254 441 221 q 441 186 430 157 q 418 128 404 106 q 389 83 378 68 q 366 53 366 47 q 366 37 371 28 q 376 20 380 11 q 342 8 304 7 q 266 6 228 6 q 192 6 152 4 q 113 3 77 8 q 86 19 99 29 q 112 39 112 55 q 112 61 98 88 q 84 115 66 154 q 49 193 35 239 q 21 285 21 328 q 21 382 38 444 q 56 507 90 560 q 123 613 172 648 q 221 683 284 683 z"},"r":{"x_min":0,"x_max":345,"ha":345,"o":"m 140 308 q 133 265 133 220 q 133 175 133 131 q 133 108 133 92 q 133 75 136 61 q 140 47 148 34 q 157 20 174 3 q 147 1 120 0 q 92 -1 65 -1 l 20 0 q 29 9 40 18 q 51 26 57 37 q 63 47 66 80 q 69 112 70 149 q 72 186 72 220 q 72 254 72 268 q 72 301 74 326 q 75 351 72 374 q 70 396 60 418 q 51 439 28 465 l 44 466 q 67 466 90 464 q 112 461 135 465 q 135 437 137 409 q 139 381 141 353 q 154 362 167 374 q 180 385 190 399 q 200 413 206 429 q 212 445 210 462 q 229 464 249 464 q 269 465 288 465 l 325 465 q 316 445 305 426 q 294 406 284 386 q 275 365 268 344 q 262 323 262 300 q 262 287 265 275 l 287 276 q 296 276 303 272 q 310 269 310 258 q 310 247 302 238 q 293 229 282 229 q 268 229 258 236 q 249 242 244 252 q 239 263 237 276 q 235 288 235 300 q 235 326 242 350 q 250 374 256 398 q 248 396 239 396 q 230 397 222 392 q 199 375 178 353 q 157 331 140 308 z"},"2":{"x_min":0,"x_max":419,"ha":419,"o":"m 68 672 q 120 672 171 674 q 222 677 274 677 q 291 677 306 676 q 322 676 339 675 q 335 664 329 654 q 323 645 323 633 q 334 605 347 588 q 360 572 372 556 q 383 540 390 519 q 398 498 398 461 q 398 413 381 376 q 364 340 337 310 q 310 281 276 256 q 243 230 210 204 q 176 178 146 149 q 116 120 97 84 q 116 76 140 76 q 170 76 200 78 q 231 79 261 79 q 278 79 288 83 q 299 87 308 93 q 317 99 326 105 q 336 111 350 115 q 352 91 352 78 q 353 65 356 55 q 360 45 368 34 q 375 24 390 5 q 367 -1 342 -2 q 318 -4 294 -4 q 225 -4 156 -2 q 88 -1 20 3 q 25 48 48 88 q 72 129 104 167 q 137 205 174 242 q 210 278 240 316 q 271 354 291 394 q 311 433 311 478 q 311 505 303 531 q 295 557 280 577 q 264 597 242 610 q 219 622 189 622 q 169 622 150 614 q 131 605 117 590 q 103 576 94 558 q 86 539 86 519 q 86 505 90 490 q 95 476 104 464 q 113 452 125 444 q 137 437 152 437 q 175 437 184 444 q 194 452 202 473 q 191 475 178 480 q 166 484 166 498 q 166 509 176 516 q 186 522 196 522 q 215 522 224 506 q 232 490 232 474 q 232 453 224 439 q 215 425 200 416 q 186 407 168 404 q 151 400 133 400 q 110 400 92 414 q 73 427 60 447 q 47 467 40 490 q 32 513 32 533 q 32 555 40 574 q 48 594 58 613 l 79 638 q 79 647 76 656 q 72 664 68 672 z"},"{":{"x_min":0,"x_max":293,"ha":293,"o":"m 38 297 l 38 307 q 78 314 94 336 q 110 358 113 388 q 116 418 112 452 q 108 486 108 517 q 108 544 109 572 q 110 600 118 625 q 126 650 144 668 q 161 685 194 691 q 211 694 230 694 q 248 693 265 697 l 265 683 q 222 681 204 654 q 186 628 181 591 q 176 554 179 514 q 182 474 182 447 q 182 423 181 400 q 180 376 172 356 q 165 337 149 323 q 133 309 104 304 l 104 300 q 137 295 154 275 q 170 255 177 225 q 184 195 184 159 q 183 123 182 86 q 180 49 180 14 q 180 -20 188 -47 q 195 -74 213 -90 q 231 -107 265 -107 l 265 -120 l 254 -120 q 214 -120 186 -113 q 158 -106 140 -89 q 123 -72 115 -44 q 107 -17 107 24 q 107 72 108 120 q 110 168 110 216 q 110 255 93 274 q 76 292 38 297 z"},"9":{"x_min":0,"x_max":468,"ha":468,"o":"m 85 683 l 379 683 q 373 674 364 663 q 354 652 354 641 q 354 633 368 606 q 383 580 400 542 q 418 503 432 456 q 447 409 447 361 q 447 311 430 249 q 412 187 380 132 q 347 77 300 40 q 253 3 194 3 q 168 3 144 8 q 119 14 100 26 q 81 39 69 59 q 57 79 57 109 q 57 127 70 143 q 83 159 101 162 q 97 148 93 134 q 89 119 89 104 q 89 90 96 80 q 104 70 115 64 q 126 57 139 54 q 152 51 164 51 q 200 51 228 66 q 256 82 278 107 q 299 132 314 165 q 329 198 338 233 q 348 268 352 302 q 356 337 356 365 q 356 385 354 412 q 351 439 346 468 q 340 497 330 526 q 320 554 306 576 q 291 599 271 613 q 251 627 224 627 q 195 627 172 614 q 150 601 134 580 q 119 560 111 534 q 103 508 103 482 q 103 459 108 431 q 113 403 124 378 q 136 352 155 335 q 174 318 203 318 q 224 318 240 336 q 256 355 256 375 q 256 397 246 408 q 235 420 215 425 q 213 416 208 402 q 204 387 191 387 q 180 387 174 395 q 169 403 169 413 q 169 432 184 442 q 198 453 215 453 q 245 453 266 430 q 287 408 287 378 q 287 357 278 339 q 270 321 256 308 q 241 296 222 289 q 204 282 183 282 q 146 282 116 299 q 86 316 65 344 q 44 371 32 405 q 21 439 21 473 q 21 510 33 538 q 45 567 60 588 q 75 609 87 624 q 99 638 99 647 q 99 657 94 666 q 90 675 85 683 z"}," ":{"x_min":0,"x_max":194,"ha":194,"o":""},"I":{"x_min":0,"x_max":247,"ha":247,"o":"m 20 702 q 71 704 122 705 q 173 706 224 708 l 227 699 q 189 678 174 653 q 160 628 160 584 l 159 392 q 159 379 159 352 q 159 324 160 290 q 160 255 161 218 q 162 180 164 147 q 165 114 168 89 q 172 64 176 55 q 184 39 196 29 q 208 19 223 10 l 223 2 l 50 1 q 43 1 36 1 q 29 1 22 2 l 22 10 q 40 21 52 30 q 64 40 71 52 q 78 63 81 78 q 84 92 84 114 l 84 548 q 84 574 82 602 q 81 629 69 652 q 61 668 46 678 q 30 688 20 702 z"},"H":{"x_min":0,"x_max":517,"ha":517,"o":"m 303 694 q 327 700 352 700 q 377 699 401 699 q 425 699 449 699 q 473 699 497 697 q 476 677 464 664 q 451 652 444 640 q 437 627 435 610 q 433 592 433 562 l 432 342 q 432 332 432 308 q 432 284 432 254 q 433 223 434 190 q 434 156 436 127 q 437 98 440 76 q 442 54 445 48 q 453 33 468 22 q 482 11 492 -3 q 443 -3 394 -4 q 345 -6 296 -6 l 297 8 q 325 21 338 45 q 351 69 355 98 q 359 127 358 158 q 357 188 357 215 q 357 246 357 277 q 357 308 355 339 q 309 339 264 340 q 218 342 172 342 q 163 342 154 339 q 150 325 150 311 q 149 297 149 283 q 149 265 149 230 q 149 196 150 159 q 151 122 154 90 q 158 58 165 45 q 172 32 183 24 q 194 16 205 8 l 202 0 l 74 -1 q 60 -1 46 0 q 33 1 20 6 q 39 25 50 40 q 61 54 67 69 q 73 84 74 102 q 76 120 76 146 l 77 341 q 77 351 77 376 q 77 402 76 434 q 76 466 76 502 q 75 537 73 568 q 71 599 68 622 q 66 644 62 650 q 54 663 42 672 q 31 681 21 692 l 26 700 q 72 698 118 696 q 163 695 208 700 q 198 680 190 671 q 181 662 175 656 q 169 651 164 646 q 160 642 157 632 q 154 621 152 602 q 151 583 151 548 l 150 474 q 150 455 151 436 q 152 418 155 400 q 197 400 239 398 q 281 397 323 397 q 332 397 340 398 q 349 399 357 403 q 355 448 356 492 q 357 537 357 582 q 357 607 354 621 q 351 635 345 646 q 339 656 328 666 q 318 677 303 694 z"},"4":{"x_min":0,"x_max":477,"ha":477,"o":"m 260 675 q 291 675 322 674 q 352 673 383 677 l 389 669 q 378 657 368 644 q 357 630 357 613 q 357 538 354 464 q 352 391 352 316 q 352 303 354 292 q 355 281 360 269 q 379 271 396 280 q 413 288 428 299 q 437 278 444 256 q 451 235 457 213 q 437 210 416 211 q 396 212 376 212 q 371 212 365 212 q 359 212 353 210 q 351 187 350 163 q 350 139 350 116 q 350 88 352 74 q 354 59 360 50 q 366 40 378 30 q 389 21 409 3 q 386 1 363 0 q 340 0 317 0 q 291 0 264 -1 q 236 -2 210 3 q 225 23 236 34 q 246 46 253 54 q 260 62 264 68 q 269 75 271 86 q 273 97 274 114 q 274 132 274 161 q 274 174 274 187 q 273 200 272 213 q 230 214 190 212 q 150 211 108 211 q 86 211 64 212 q 42 213 20 215 q 28 234 50 270 q 71 306 98 350 q 125 394 155 441 q 185 488 210 529 q 234 570 250 600 q 266 629 266 638 q 266 648 264 657 q 262 666 260 675 z m 272 551 q 258 528 234 490 q 210 451 185 410 q 160 368 140 330 q 119 292 113 271 l 270 271 q 276 297 278 333 q 280 369 280 407 q 281 445 280 482 q 280 520 281 549 z"},"~":{"x_min":0,"x_max":498,"ha":498,"o":"m 61 414 q 88 438 122 460 q 155 481 193 481 q 217 481 236 470 q 256 458 274 444 q 292 431 311 420 q 330 408 355 408 q 362 408 374 414 q 385 420 397 428 q 409 435 420 443 q 430 451 436 456 l 436 406 q 422 395 408 384 q 394 374 380 365 q 366 356 350 350 q 334 345 315 345 q 290 345 270 356 q 250 368 232 382 q 213 395 194 406 q 176 418 154 418 q 142 418 130 412 q 117 406 104 398 q 92 390 81 380 q 70 371 61 364 z"},"D":{"x_min":0,"x_max":508,"ha":508,"o":"m 44 699 q 125 695 206 696 q 287 696 368 696 q 363 688 357 678 q 351 669 351 661 q 351 642 372 612 q 394 581 420 541 q 445 501 466 452 q 488 403 488 346 q 488 287 471 236 q 454 185 434 146 q 414 106 397 79 q 380 52 380 42 q 380 31 384 22 q 389 13 396 5 l 389 -4 q 300 -2 212 -2 q 125 -1 36 -1 l 20 8 q 54 28 68 55 q 82 82 86 113 q 89 144 86 178 q 83 213 83 249 q 83 335 86 420 q 89 505 89 591 q 89 610 86 624 q 83 638 78 650 q 72 662 64 673 q 55 684 44 699 z m 219 624 q 211 624 200 624 q 190 624 182 621 q 177 619 174 605 q 170 591 168 570 q 166 548 165 523 q 164 498 164 475 q 164 452 164 434 q 164 416 164 408 q 164 340 164 273 q 165 206 165 138 q 165 134 165 124 q 165 113 166 102 q 168 90 172 81 q 175 72 181 72 q 219 72 258 74 q 297 75 335 75 q 350 94 362 128 q 375 161 384 198 q 393 235 398 271 q 403 307 403 332 q 403 346 399 373 q 395 400 388 432 q 381 465 370 499 q 360 533 347 561 q 334 589 319 607 q 304 625 287 625 z"},"^":{"x_min":0,"x_max":362,"ha":362,"o":"m 37 415 q 29 421 29 429 q 29 432 38 452 q 47 472 62 500 q 76 528 93 560 q 110 593 126 622 q 142 651 155 672 q 168 692 173 697 q 179 692 192 673 q 206 654 222 628 q 239 602 257 572 q 275 541 290 513 q 305 485 316 464 q 326 442 328 433 l 322 420 q 311 423 290 444 q 269 464 246 490 q 224 515 204 540 q 184 564 175 574 q 166 563 148 538 q 129 514 108 488 q 86 461 66 440 q 47 418 37 415 z"},"0":{"x_min":0,"x_max":439,"ha":439,"o":"m 219 697 q 259 671 296 634 q 332 598 360 555 q 387 512 403 464 q 419 415 419 366 q 419 307 404 262 q 390 216 366 176 q 342 136 311 98 q 280 61 247 17 q 244 13 238 6 q 232 -2 227 -2 q 222 -2 210 6 q 198 13 186 23 q 173 33 162 42 q 150 52 146 56 q 117 81 94 114 q 71 148 55 185 q 39 222 30 262 q 21 301 21 339 q 21 398 40 445 q 59 492 88 534 q 117 575 152 614 q 187 653 219 697 z m 96 367 q 96 274 135 208 q 174 142 245 87 q 285 130 312 185 q 338 240 338 300 q 338 352 332 393 q 325 434 310 470 q 295 505 270 538 q 244 570 206 605 q 180 594 160 566 q 139 537 125 502 q 111 466 104 430 q 96 393 96 367 z"},"F":{"x_min":0,"x_max":451,"ha":451,"o":"m 510 714 q 509 709 496 694 q 482 678 462 654 q 443 630 420 599 q 397 568 378 532 q 358 496 345 456 q 332 417 332 376 q 332 339 355 311 q 363 314 370 318 q 377 321 385 321 q 396 321 403 312 q 410 302 410 292 q 410 274 398 265 q 387 256 370 256 q 343 256 328 271 q 314 286 306 305 q 298 324 294 340 q 289 356 283 358 q 273 361 258 361 q 244 361 233 361 q 201 361 168 358 q 163 307 162 254 q 160 202 160 151 q 160 106 171 68 q 182 31 219 2 q 170 -3 122 0 q 74 4 25 -1 l 26 10 q 48 20 60 42 q 73 65 79 92 q 85 118 86 146 q 88 173 88 194 q 88 288 87 382 q 86 476 86 570 q 86 594 84 613 q 81 632 74 648 q 66 664 54 678 q 41 693 20 708 q 55 712 90 711 q 125 710 160 710 q 248 710 335 712 q 422 714 510 714 z m 164 588 l 164 472 q 164 459 164 446 q 165 433 166 420 q 198 418 229 417 q 260 416 292 414 q 304 450 312 476 q 320 503 329 526 q 338 550 352 574 q 366 598 390 630 q 370 653 340 662 q 311 671 281 671 q 260 671 240 668 q 219 664 202 654 q 185 645 174 629 q 164 613 164 588 z"},"`":{"x_min":0,"x_max":346,"ha":346,"o":"m 210 575 l 160 575 l 63 720 l 170 720 l 210 575 z"},"k":{"x_min":0,"x_max":409,"ha":409,"o":"m 20 706 q 49 706 78 704 q 106 703 135 703 q 135 634 134 567 q 132 500 132 431 l 132 315 l 133 289 q 141 293 160 314 q 178 334 198 358 q 218 383 234 406 q 251 430 256 440 l 223 473 l 385 473 l 388 465 q 374 460 346 440 q 318 419 290 394 q 263 368 242 343 q 222 318 222 305 q 222 300 230 280 q 237 260 249 232 q 261 204 276 172 q 290 141 303 114 q 316 86 326 66 q 337 46 341 42 q 351 31 364 26 q 377 20 389 14 l 389 6 q 369 4 349 4 q 329 5 309 5 q 301 5 288 5 q 276 5 262 6 q 248 6 236 7 q 224 8 218 11 q 227 20 239 30 q 251 39 251 53 q 251 64 241 91 q 231 118 218 148 q 206 179 193 207 q 180 235 174 247 q 150 230 140 212 q 129 193 129 163 q 129 140 128 120 q 127 99 130 81 q 132 63 141 46 q 150 30 170 14 l 167 6 q 138 8 110 6 q 81 5 52 5 l 22 6 q 28 19 38 28 q 49 38 55 51 q 59 60 62 97 q 65 134 66 186 q 68 239 69 300 q 70 360 70 415 q 71 470 71 513 q 71 556 71 574 q 71 611 70 627 q 70 643 66 652 q 61 662 50 672 q 40 682 20 706 z"},"u":{"x_min":0,"x_max":401,"ha":401,"o":"m 269 481 q 297 481 325 482 q 353 482 381 487 l 381 473 q 369 461 357 452 q 345 442 340 425 q 330 388 330 343 q 329 298 329 259 q 329 233 327 197 q 325 161 328 126 q 330 91 341 61 q 352 31 378 17 l 375 8 l 280 8 q 269 8 265 22 q 261 35 261 53 q 261 71 262 88 q 264 105 264 112 q 258 109 242 98 q 225 87 208 74 q 190 61 176 49 q 163 37 163 31 q 167 26 172 22 q 177 18 182 14 l 182 8 l 73 7 q 59 7 46 7 q 34 7 20 8 l 20 19 q 42 34 53 51 q 64 68 68 88 q 73 107 73 128 q 73 150 73 176 q 73 233 72 290 q 71 346 71 403 q 71 419 67 429 q 63 439 57 447 q 51 455 42 462 q 34 470 25 481 q 30 483 34 483 q 37 483 42 483 q 64 483 86 482 q 107 480 129 481 l 137 473 q 140 451 140 429 q 141 407 141 385 q 141 316 138 249 q 136 182 136 113 q 136 102 136 92 q 136 81 138 70 q 144 72 160 84 q 177 95 196 109 q 215 123 232 136 q 249 149 254 154 q 261 160 264 189 q 266 218 266 252 q 266 287 264 319 q 263 351 263 364 q 263 393 264 422 q 265 452 269 481 z"},"]":{"x_min":0,"x_max":293,"ha":293,"o":"m 179 -120 l 32 -120 l 32 -107 q 50 -105 68 -102 q 87 -99 104 -92 l 104 668 q 87 676 69 679 q 51 682 32 684 l 32 697 l 179 697 z"},"U":{"x_min":0,"x_max":534,"ha":534,"o":"m 32 704 q 65 704 98 702 q 131 699 164 701 l 169 695 q 167 648 168 602 q 169 556 169 509 q 169 408 166 308 q 163 208 163 107 q 163 99 164 92 q 165 84 169 76 q 191 76 212 75 q 234 74 256 74 q 262 74 270 76 q 271 76 284 90 q 296 103 311 120 q 326 137 340 152 q 353 168 356 172 q 360 177 363 204 q 366 232 368 272 q 369 311 370 357 q 371 403 372 444 q 372 486 372 518 q 372 551 372 563 q 372 602 372 618 q 371 635 366 644 q 361 654 350 664 q 340 675 320 701 q 368 701 416 700 q 463 699 511 701 l 514 692 q 480 674 466 648 q 452 622 448 592 q 445 562 448 530 q 451 497 451 466 q 451 373 448 282 q 445 190 445 97 q 445 76 448 64 q 452 52 459 43 q 466 34 476 25 q 486 16 499 1 q 466 -1 432 -2 q 399 -2 366 -2 q 364 21 366 44 q 368 67 368 90 q 368 97 366 104 q 365 112 361 118 q 332 97 312 67 q 292 37 269 12 q 269 3 246 0 q 223 -4 194 -4 q 164 -5 134 -4 q 105 -4 91 -4 q 76 -4 55 -4 q 34 -4 20 1 q 29 10 39 18 q 49 26 58 34 q 66 43 72 54 q 78 64 80 79 q 88 160 89 241 q 90 322 90 403 l 89 604 q 89 623 86 636 q 82 649 75 658 q 68 668 58 676 q 47 685 32 695 z"},"o":{"x_min":0,"x_max":316,"ha":316,"o":"m 158 471 q 176 471 193 458 q 210 444 226 423 q 241 402 254 376 q 267 349 276 323 q 286 297 291 274 q 296 250 296 235 q 296 205 285 170 q 274 136 256 104 q 238 71 214 43 q 191 15 166 -1 q 148 -2 130 12 q 113 25 97 46 q 81 68 67 95 q 53 122 42 149 q 32 176 26 200 q 20 223 20 238 q 20 274 30 303 q 39 332 55 357 q 71 382 92 405 q 112 428 134 454 q 139 459 144 465 q 150 471 158 471 z m 120 403 q 109 395 101 380 q 93 366 88 350 q 83 333 80 316 q 77 299 77 286 q 77 274 82 253 q 86 232 94 208 q 101 185 112 160 q 123 136 136 116 q 148 96 162 84 q 176 71 191 71 l 207 84 q 218 103 228 130 q 237 156 237 177 q 237 241 216 288 q 196 335 153 381 q 146 389 139 397 q 132 405 120 403 z"},"N":{"x_min":0,"x_max":600,"ha":600,"o":"m 268 693 q 294 695 321 696 q 348 696 374 696 q 411 696 447 695 q 483 694 520 696 q 517 676 505 661 q 493 646 484 629 q 470 603 458 570 q 447 538 439 504 q 431 469 426 434 q 422 400 422 371 q 422 335 428 288 q 433 242 445 196 q 457 149 476 107 q 494 65 519 38 q 532 24 549 17 q 566 10 580 -1 q 561 -7 542 -7 q 522 -7 503 -7 q 487 -7 472 -6 q 456 -6 440 -4 l 427 7 q 407 43 392 86 q 377 129 366 174 q 355 220 350 265 q 344 310 344 351 q 344 385 350 419 q 355 453 363 486 q 371 519 380 552 q 388 585 395 618 q 384 621 373 622 q 362 623 351 623 q 339 623 326 622 q 314 622 302 620 q 295 618 281 605 q 267 592 250 573 q 233 554 216 531 q 198 508 184 486 q 169 465 160 448 q 151 430 151 422 q 151 380 150 338 q 149 297 149 255 q 149 242 149 210 q 149 177 150 141 q 152 105 156 74 q 159 44 166 35 q 175 23 188 15 q 200 7 210 -4 q 174 -6 138 -8 q 103 -11 67 -11 q 55 -11 43 -9 q 31 -7 20 -4 q 37 11 52 30 q 66 48 69 72 q 77 141 77 212 q 77 283 77 352 l 77 570 q 77 593 74 608 q 71 622 65 634 q 59 645 50 656 q 40 668 26 685 l 33 693 q 62 691 92 692 q 121 692 150 690 q 152 660 152 630 q 151 599 151 569 q 151 556 152 543 q 152 530 153 517 q 157 519 174 538 q 192 556 212 578 q 232 601 248 621 q 265 641 267 646 q 272 657 271 669 q 270 681 268 693 z"},"+":{"x_min":0,"x_max":294,"ha":294,"o":"m 106 116 l 106 208 l 14 208 l 14 282 l 106 282 l 106 375 l 180 375 l 180 282 l 273 282 l 273 208 l 180 208 l 180 116 l 106 116 z"},"G":{"x_min":0,"x_max":510,"ha":510,"o":"m 456 708 q 475 708 488 704 q 465 682 443 658 q 421 634 403 607 q 385 580 373 550 q 361 521 360 488 q 366 485 373 484 q 380 483 386 480 q 391 478 394 473 q 398 468 398 459 q 398 448 390 438 q 382 428 370 428 q 343 428 330 446 q 318 463 318 488 q 318 524 332 556 q 345 589 362 620 q 341 624 320 625 q 299 626 278 626 l 214 625 q 199 625 184 606 q 170 588 158 560 q 145 532 134 498 q 123 463 116 430 q 108 398 104 371 q 99 344 99 331 q 99 292 109 253 q 119 214 138 180 q 158 145 186 118 q 215 90 253 74 q 255 73 258 72 q 260 71 262 71 q 270 71 274 77 q 278 83 283 88 q 310 117 322 140 q 333 163 337 186 q 341 210 340 238 q 338 265 338 303 q 330 304 321 304 q 312 304 304 304 l 237 303 q 228 283 220 262 q 211 242 210 219 q 215 214 222 208 q 229 203 229 195 q 229 184 225 174 q 221 165 207 165 q 184 165 174 184 q 165 202 165 222 q 165 238 170 256 q 175 274 182 292 q 189 311 196 330 q 202 348 204 365 q 238 367 272 364 q 305 362 339 362 q 371 362 404 366 q 437 369 469 369 l 490 368 q 478 354 460 345 q 443 336 433 320 q 423 304 420 268 q 416 233 416 193 q 415 153 417 116 q 419 78 420 57 l 408 57 q 400 70 394 84 q 387 97 379 110 l 367 110 q 360 103 340 82 q 321 62 299 40 q 277 17 258 0 q 239 -18 234 -18 q 215 -18 194 -6 q 173 6 152 26 q 131 46 112 70 q 92 95 76 120 q 60 145 48 168 q 37 192 33 208 q 21 256 21 306 q 21 352 32 392 q 42 431 58 466 q 74 502 93 533 q 112 564 128 593 q 144 622 156 649 q 167 676 168 704 q 240 704 312 706 q 384 708 456 708 z"},"q":{"x_min":0,"x_max":367,"ha":367,"o":"m 144 474 q 174 474 192 456 q 211 439 228 417 l 234 417 q 236 428 236 438 q 237 448 238 459 q 265 461 292 463 q 320 465 347 465 q 339 451 326 440 q 314 428 307 412 q 304 405 302 379 q 299 353 298 318 q 297 283 296 243 q 295 203 295 166 q 295 129 295 100 q 295 72 295 61 l 296 -145 q 296 -165 298 -176 q 299 -187 304 -196 q 308 -205 315 -214 q 322 -223 334 -238 q 299 -240 264 -240 q 229 -241 194 -241 q 215 -218 224 -196 q 234 -173 237 -150 q 240 -126 239 -100 q 238 -75 238 -45 q 238 -23 228 -13 q 218 -3 202 -1 q 187 1 168 0 q 150 -2 134 -2 q 126 -2 118 -2 q 109 -1 101 0 q 105 11 110 21 q 114 31 114 42 q 114 61 100 86 q 85 111 67 143 q 49 175 34 214 q 20 252 20 298 q 20 325 27 356 q 34 387 49 414 q 64 440 88 457 q 111 474 144 474 z m 88 263 q 88 209 103 157 q 118 105 147 59 q 164 59 180 58 q 196 57 209 60 q 222 63 230 73 q 237 83 237 104 l 238 245 q 238 262 237 290 q 236 317 230 344 q 223 370 209 390 q 195 409 170 409 q 147 409 132 392 q 116 376 106 353 q 97 330 92 305 q 88 280 88 263 z"},"d":{"x_min":0,"x_max":364,"ha":364,"o":"m 160 692 q 166 694 172 694 q 179 694 186 694 q 238 694 260 689 q 281 684 286 668 q 291 653 287 624 q 283 595 283 546 q 283 531 284 490 q 284 448 285 394 q 286 339 288 279 q 290 219 292 168 q 293 117 295 82 q 297 47 299 42 q 304 30 319 20 q 334 9 344 0 q 323 -5 302 -6 q 280 -7 258 -7 q 245 -7 238 -4 q 232 0 229 6 q 226 13 226 22 q 226 31 226 42 q 207 23 188 4 q 168 -16 139 -16 q 105 -16 82 3 q 60 22 46 50 q 32 79 26 112 q 20 145 20 172 q 20 210 32 250 q 45 289 60 324 q 76 358 88 384 q 101 410 101 421 q 101 432 98 442 q 94 451 92 462 q 112 460 132 459 q 153 458 173 458 l 206 459 l 218 471 q 220 487 220 502 q 220 518 220 535 q 220 577 220 596 q 221 616 216 628 q 211 640 198 652 q 186 665 160 692 z m 199 398 q 183 398 166 397 q 149 396 134 392 q 125 390 115 367 q 105 344 96 316 q 88 287 83 260 q 78 234 78 224 q 78 207 83 178 q 88 150 98 122 q 108 95 124 74 q 140 54 161 54 q 183 54 196 66 q 210 79 216 98 q 223 116 225 136 q 227 157 227 174 q 227 225 224 276 q 221 328 221 379 q 221 388 214 393 q 207 398 199 398 z"},"1":{"x_min":0,"x_max":314,"ha":314,"o":"m 268 683 l 274 675 q 260 659 252 642 q 245 626 245 605 q 247 508 245 412 q 243 316 243 219 q 243 182 242 155 q 242 128 246 104 q 250 81 261 57 q 272 33 294 3 q 240 0 187 0 q 167 0 148 0 q 129 1 109 3 q 120 16 133 27 q 146 38 154 53 q 159 63 162 90 q 166 116 168 150 q 170 185 170 224 q 171 264 171 300 q 171 336 171 366 q 171 396 171 411 q 171 474 168 537 q 154 529 142 516 q 129 504 116 492 q 104 480 90 471 q 76 462 58 462 q 44 462 32 470 q 21 478 21 493 q 21 501 26 508 q 30 514 39 514 q 47 514 54 509 q 61 504 69 504 q 84 504 100 525 q 116 546 130 573 q 145 600 156 627 q 168 654 173 666 q 176 673 188 676 q 201 679 216 680 q 232 681 246 682 q 261 682 268 683 z"},"5":{"x_min":0,"x_max":428,"ha":428,"o":"m 51 677 q 84 680 116 680 l 313 680 q 338 680 364 677 q 356 660 347 643 q 338 626 333 607 q 289 605 246 605 q 202 605 157 605 q 149 605 141 604 q 133 604 125 599 q 129 555 126 512 q 124 469 128 425 q 152 433 173 442 q 194 450 221 450 q 263 450 298 431 q 332 412 356 381 q 381 350 394 312 q 407 273 407 234 q 407 196 394 166 q 381 136 365 114 q 349 91 336 75 q 323 59 323 49 q 323 38 330 28 q 336 19 342 11 q 310 5 276 3 q 243 1 210 1 q 198 1 174 1 q 150 1 124 2 q 99 2 76 4 q 54 5 45 8 q 51 14 57 22 q 63 29 63 38 q 63 44 56 56 q 50 68 42 84 q 33 99 26 118 q 20 136 20 155 q 20 180 30 202 q 40 223 58 238 q 75 254 98 262 q 120 271 144 271 q 156 271 168 266 q 180 262 190 254 q 201 245 208 234 q 214 223 214 211 q 214 196 206 182 q 197 169 180 169 q 167 169 161 177 q 155 185 152 196 q 168 208 180 224 q 160 241 135 241 q 105 241 89 220 q 73 198 73 170 q 73 147 82 127 q 92 107 108 92 q 123 77 144 68 q 164 59 186 59 q 220 59 245 78 q 270 97 286 125 q 302 153 310 186 q 317 219 317 248 q 317 272 310 300 q 303 328 289 352 q 275 377 254 393 q 232 409 204 409 q 184 409 170 402 q 155 396 144 388 q 132 380 122 374 q 112 367 100 367 q 86 367 77 372 q 79 396 80 420 q 81 445 81 470 q 81 497 82 524 q 83 551 82 578 q 80 604 74 629 q 67 654 51 677 z"}}}
